<svg width="60" height="60" viewBox="0 0 60 60" fill="none" xmlns="http://www.w3.org/2000/svg">
<g clip-path="url(#clip0_1_12)">
<path fill-rule="evenodd" clip-rule="evenodd" d="M59.9683 29.3112C59.9683 45.3334 46.8296 58.35 30.5201 58.6143C30.385 58.9275 30.2645 59.2378 30.1293 59.5482C30.094 59.6574 30.0558 59.7637 30.0059 59.8729V59.9073C30.0059 59.9073 30.0059 59.9188 29.9941 59.9332C29.8315 59.485 29.6601 59.0453 29.4799 58.6143C13.1704 58.3385 0.0317383 45.3334 0.0317383 29.3112C0.0317383 13.5275 12.8031 0.654561 28.7952 0.0310364C16.5763 0.628703 6.69364 9.98169 5.62985 21.8029C6.33806 22.9149 7.2079 23.8258 8.21291 24.616C12.5092 27.9808 19.1594 28.8802 24.9749 31.8369L22.7827 38.0061L20.6522 44.0403C20.6522 44.0403 20.7257 44.0633 20.8726 44.1237C21.4721 44.3765 23.2235 45.227 25.1219 47.3821H25.1336C26.8468 49.3332 28.7099 52.3646 29.9207 56.9621C29.9207 56.9621 29.9207 56.9659 29.9207 56.9736C29.9461 57.0694 29.9745 57.1613 30.0059 57.2494C30.0323 57.1546 30.0558 57.0454 30.0794 56.9506V56.9391C31.3048 52.3531 33.1414 49.3332 34.8693 47.3821C37.2203 44.7127 39.3508 44.0403 39.3508 44.0403L39.2773 43.8478V43.8133L37.2056 38.0061L35.028 31.8369C40.8436 28.8802 47.4791 27.9808 51.79 24.616C52.7951 23.8258 53.662 22.9149 54.3614 21.8144C53.2946 9.98169 43.4267 0.628703 31.2195 0.0310364C47.1969 0.654561 59.9683 13.5275 59.9683 29.3112ZM27.9018 55.3817C26.5794 53.0571 25.0601 51.0946 23.4204 49.3935C22.2185 48.1235 20.9461 47.0114 19.6619 45.9684C19.27 45.6485 18.8733 45.3372 18.4717 45.0345C16.5381 43.549 14.578 42.2329 12.7414 40.8911C11.1134 39.6928 9.57056 38.4975 8.21291 37.1671C6.99925 35.9689 5.93547 34.6644 5.1009 33.1788C5.1009 33.1788 5.61516 42.6266 18.1925 48.6637C23.3469 51.1434 26.2591 53.4881 27.9018 55.3817ZM54.9109 33.1788H54.8991V33.1903C54.0675 34.6758 53.0008 35.9689 51.79 37.1671C50.4441 38.4975 48.9014 39.6928 47.2586 40.8796C45.422 42.2215 43.4766 43.5375 41.5401 45.023C41.1815 45.3027 40.823 45.5824 40.4645 45.8621C39.1304 46.9281 37.8197 48.089 36.5826 49.3935C34.9428 51.1061 33.4118 53.0571 32.0894 55.3932C33.7291 53.5025 36.6443 51.1549 41.8104 48.6637C54.3849 42.6266 54.9109 33.1788 54.9109 33.1788Z" fill="#A1A8B2"/>
<path d="M30.4849 34.8404V31.2943C30.9179 31.2713 31.3342 31.2081 31.7338 31.1046C32.0198 31.0318 32.297 30.9437 32.5654 30.8402C35.2101 29.8344 37.0849 27.32 37.0849 24.3859C37.0849 20.5524 33.8995 17.4517 29.9942 17.4517C26.0771 17.4517 22.8947 20.5524 22.8947 24.3859C22.8947 27.32 24.7665 29.8344 27.4112 30.8402C27.8167 30.9954 28.2428 31.1161 28.6719 31.1995C28.9422 31.2483 29.2243 31.2828 29.4917 31.2943V34.8404V39.8579V43.8121C28.9187 43.9558 28.4897 44.4702 28.4897 45.0794C28.4897 45.7403 29.0039 46.2892 29.6533 46.3754C29.718 46.3831 29.7787 46.3869 29.8355 46.3869C29.8845 46.3869 29.9374 46.3831 29.9942 46.3754C30.0432 46.3831 30.0921 46.3869 30.1411 46.3869C30.2028 46.3869 30.2645 46.3754 30.3262 46.3754C30.9757 46.2777 31.4752 45.7403 31.4752 45.0794C31.4752 44.4702 31.0609 43.9558 30.4849 43.8121V40.2775V34.8404Z" fill="#A1A8B2"/>
</g>
<defs>
<clipPath id="clip0_1_12">
<rect width="60" height="60" fill="white"/>
</clipPath>
</defs>
</svg>
