<svg width="300" height="160" viewBox="0 0 300 160" fill="none" xmlns="http://www.w3.org/2000/svg">
<g clip-path="url(#clip0_1_2)">
<path fill-rule="evenodd" clip-rule="evenodd" d="M107.667 78.7917C107.667 107.68 84.5672 131.148 55.8931 131.625C55.6555 132.19 55.4436 132.749 55.206 133.309C55.144 133.506 55.0768 133.697 54.989 133.894V133.956C54.989 133.956 54.989 133.977 54.9683 134.003C54.6824 133.195 54.381 132.402 54.0642 131.625C25.3901 131.128 2.29065 107.68 2.29065 78.7917C2.29065 50.3339 24.7443 27.1242 52.8604 26C31.3781 27.0776 14.0031 43.9409 12.1328 65.2545C13.378 67.2594 14.9072 68.9017 16.6742 70.3264C24.2276 76.3931 35.9194 78.0146 46.1439 83.3456L42.2897 94.4687L38.544 105.348C38.544 105.348 38.6732 105.39 38.9315 105.498C39.9854 105.954 43.0647 107.488 46.4023 111.373H46.4229C49.435 114.891 52.7105 120.357 54.8391 128.646C54.8391 128.646 54.8391 128.653 54.8391 128.667C54.8839 128.839 54.9339 129.005 54.989 129.164C55.0355 128.993 55.0768 128.796 55.1181 128.625V128.605C57.2726 120.336 60.5016 114.891 63.5395 111.373C67.6727 106.561 71.4185 105.348 71.4185 105.348L71.2893 105.001V104.939L67.6469 94.4687L63.8185 83.3456C74.043 78.0146 85.709 76.3931 93.2883 70.3264C95.0552 68.9017 96.5793 67.2594 97.809 65.2752C95.9335 43.9409 78.5844 27.0776 57.1227 26C85.213 27.1242 107.667 50.3339 107.667 78.7917ZM51.2898 125.797C48.9648 121.605 46.2937 118.067 43.4108 115C41.2977 112.71 39.0606 110.705 36.8029 108.824C36.114 108.248 35.4165 107.686 34.7105 107.141C31.3109 104.462 27.8648 102.09 24.6358 99.6701C21.7735 97.5098 19.0611 95.3546 16.6742 92.9559C14.5404 90.7955 12.6701 88.4435 11.2029 85.765C11.2029 85.765 12.107 102.799 34.2196 113.684C43.2817 118.155 48.4017 122.382 51.2898 125.797ZM98.7751 85.765H98.7544V85.7857C97.2923 88.4642 95.4169 90.7955 93.2883 92.9559C90.922 95.3546 88.2096 97.5098 85.3215 99.6494C82.0924 102.069 78.6722 104.442 75.2675 107.12C74.6372 107.624 74.0069 108.129 73.3766 108.633C71.031 110.555 68.7267 112.648 66.5516 115C63.6687 118.088 60.977 121.605 58.652 125.817C61.5349 122.408 66.6601 118.176 75.7428 113.684C97.8503 102.799 98.7751 85.765 98.7751 85.765Z" fill="#A1A8B2"/>
<path d="M55.8463 88.7289V82.3348C56.6074 82.2934 57.3392 82.1794 58.0418 81.9928C58.5446 81.8616 59.0319 81.7027 59.5037 81.5161C64.153 79.7026 67.4488 75.1687 67.4488 69.8783C67.4488 62.9661 61.849 57.3752 54.9836 57.3752C48.0975 57.3752 42.5028 62.9661 42.5028 69.8783C42.5028 75.1687 45.7935 79.7026 50.4428 81.5161C51.1556 81.7959 51.9047 82.0135 52.6589 82.1638C53.1342 82.2519 53.6301 82.3141 54.1002 82.3348V88.7289V97.7759V104.906C53.0928 105.165 52.3386 106.092 52.3386 107.191C52.3386 108.383 53.2427 109.372 54.3843 109.528C54.498 109.542 54.6047 109.548 54.7046 109.548C54.7907 109.548 54.8837 109.542 54.9836 109.528C55.0697 109.542 55.1558 109.548 55.2418 109.548C55.3503 109.548 55.4588 109.528 55.5673 109.528C56.709 109.352 57.5872 108.383 57.5872 107.191C57.5872 106.092 56.8588 105.165 55.8463 104.906V98.5324V88.7289Z" fill="#A1A8B2"/>
<path d="M158.432 37.6622V38.0715H158.065C156.82 38.0715 155.095 38.8021 154.475 40.6208L147.672 62.3886C147.672 62.3886 146.855 65.0001 146.788 66.9432H146.401L138.006 43.4241L131.787 62.3627C131.787 62.3627 131.012 64.9328 130.944 66.9432H130.557L121.238 40.5742C120.571 38.7814 118.913 38.0715 117.642 38.0715H117.322V37.6622H126.424V38.0715H126.083C125.03 38.0715 123.996 38.9783 124.466 40.5949L130.666 60.6165L138.306 37.0145H138.693L146.788 59.7719L152.28 40.512C152.688 38.9316 151.804 38.0715 150.683 38.0715H150.316V37.6622H158.432Z" fill="white"/>
<path d="M169.309 41.7601C174.475 41.7601 177.637 44.2676 177.637 48.4329C177.637 51.9092 174.945 54.8259 171.267 55.2145C172.15 55.603 173.545 57.178 174.429 58.4317C174.408 58.4317 176.325 61.0014 178.004 62.9234C179.683 64.7989 180.825 66.0112 183.103 66.0319V66.4412H181.812C177.27 66.4412 175.483 64.3896 174.191 62.8354C173.741 62.2758 170.492 57.5873 170.166 57.1987C169.071 55.7947 167.65 54.4167 166.012 54.4167V54.0488C166.012 54.0488 167.025 54.0695 168.379 54.0281C170.642 53.9607 173.225 53.94 174.408 50.4845C174.604 49.9042 174.708 49.039 174.687 48.1531C174.604 45.0654 172.538 43.2522 169.241 43.0812C166.937 42.9724 164.917 43.0812 164.53 43.0605V63.8093C164.55 65.0372 165.537 66.0319 166.855 66.0319H167.413V66.4412H159.017L159.038 66.0319H159.575C160.887 66.0319 161.859 65.0838 161.921 63.8715V44.309C161.879 43.1019 160.887 42.1746 159.575 42.1746H159.038L159.017 41.7601H169.309Z" fill="white"/>
<path d="M184.739 66.4412V66.0319H185.276C186.805 66.0319 188.035 65.0372 188.076 63.8093V44.3971C188.035 43.1641 186.805 42.1746 185.276 42.1746H184.739V41.7601H194.018V42.1746H193.46C191.972 42.1746 190.768 43.1226 190.68 44.3297V63.8508C190.747 65.0579 191.972 66.0319 193.48 66.0319H194.018V66.4412H184.739Z" fill="white"/>
<path d="M214.789 41.7187C216.422 41.7187 218.664 41.3508 219.372 41.071V45.7131H218.943V45.0655C218.922 43.9205 218.127 42.9724 216.877 42.9517H209.448V63.8515C209.515 65.0845 210.569 66.0326 211.86 66.0326H212.336L212.356 66.4419H203.894V66.0326H204.369C205.682 66.0326 206.761 65.0379 206.782 63.81V42.9517H199.353C198.108 42.9724 197.307 43.9205 197.307 45.0655V45.7131H196.858V41.071C197.592 41.3508 199.828 41.7187 201.44 41.7187H214.789Z" fill="white"/>
<path d="M222.213 66.4412V66.0319H222.75C224.279 66.0319 225.53 65.0372 225.55 63.8093V44.3971C225.53 43.1641 224.279 42.1746 222.75 42.1746H222.213V41.7601H231.492V42.1746H230.954C229.446 42.1746 228.242 43.1226 228.154 44.3297V63.8508C228.221 65.0579 229.446 66.0319 230.954 66.0319H231.492V66.4412H222.213Z" fill="white"/>
<path d="M264.256 41.7601L264.236 42.1745H263.564C262.34 42.1745 261.348 43.0812 261.286 44.2468V61.7785C261.286 64.431 261.673 67.0266 261.673 67.0266H261.286L239.953 46.7284V63.8922C239.974 65.0838 240.987 66.0318 242.232 66.0318H242.924V66.4411H235.174V66.0318H235.861C237.112 66.0318 238.119 65.0838 238.145 63.8922V46.2984C238.145 43.4905 237.757 41.1591 237.757 41.1591L238.186 41.1798L259.477 61.3018V44.2261C259.39 43.0812 258.398 42.1745 257.194 42.1745H256.507V41.7601H264.256Z" fill="white"/>
<path d="M292.648 61.7371C290.752 64.1513 286.748 67.0266 280.977 67.0266C272.861 66.98 267.524 62.079 267.524 54.111C267.524 46.1016 272.887 41.1799 280.957 41.1799C284.744 41.1799 287.761 41.9777 290.535 43.6822L291.439 49.4898H291.073C289.89 44.6769 286.66 42.4336 280.915 42.4336C274.648 42.4336 270.474 46.858 270.474 54.111C270.474 61.3226 274.669 65.7936 280.977 65.7936C284.377 65.7936 287.415 64.7367 289.977 62.2292L290.06 56.7687C290.06 55.7326 289.352 55.1472 288.148 55.1472H287.565V54.7379H295.077V55.1472H294.519C293.315 55.1472 292.643 55.7326 292.643 56.7687L292.648 61.7371Z" fill="white"/>
<path d="M130.646 125.627H126.941V125.539H127.05C127.355 125.539 127.613 125.301 127.634 124.98V119.944C127.587 119.664 127.355 119.426 127.05 119.426H126.941V119.343H129.55C129.938 119.343 130.454 119.255 130.625 119.167V119.452V119.602V120.312H130.537V120.141C130.537 119.861 130.299 119.644 130.02 119.623H128.212V122.384H129.721C129.958 122.384 130.15 122.193 130.15 121.954V121.825H130.237V123.249H130.15V123.099C130.15 122.861 129.958 122.669 129.721 122.669H128.212V125.368H129.483C130.429 125.368 130.795 124.871 131.074 124.177H131.162L130.646 125.627Z" fill="white"/>
<path d="M138.633 125.042C138.674 125.368 138.958 125.539 139.237 125.539H139.366V125.627H137.511V125.56H137.641C137.816 125.56 137.987 125.389 137.966 125.192L137.491 121.504L135.812 124.85C135.812 124.85 135.553 125.389 135.491 125.757H135.404L133.249 121.586L132.841 125.192C132.82 125.389 132.991 125.56 133.166 125.56H133.296V125.627H131.637V125.539H131.766C132.066 125.539 132.345 125.368 132.391 125.042L133.079 120.12H133.166L135.533 124.674L137.837 120.12H137.899L138.633 125.042Z" fill="white"/>
<path d="M142.031 120.25C143.282 120.25 144.077 120.83 144.077 121.783C144.077 123.141 142.724 123.767 141.494 123.161V123.078C141.494 123.078 142.915 123.467 143.369 122.172C143.411 122.042 143.431 121.845 143.431 121.695C143.431 120.96 142.894 120.509 142.011 120.509H141.148V125.063C141.148 125.322 141.386 125.539 141.665 125.539H141.794V125.627H139.923L139.944 125.539H140.053C140.352 125.539 140.569 125.322 140.569 125.063V120.809C140.569 120.53 140.352 120.338 140.053 120.338H139.944L139.923 120.25H142.031Z" fill="white"/>
<path fill-rule="evenodd" clip-rule="evenodd" d="M147.921 125.757C146.247 125.757 144.893 124.493 144.893 122.939C144.893 121.379 146.247 120.12 147.921 120.12C149.595 120.12 150.943 121.379 150.943 122.939C150.943 124.493 149.595 125.757 147.921 125.757ZM150.277 122.939C150.277 121.524 149.223 120.379 147.921 120.379C146.619 120.379 145.565 121.524 145.565 122.939C145.565 124.353 146.619 125.498 147.921 125.498C149.223 125.498 150.277 124.353 150.277 122.939Z" fill="white"/>
<path d="M159.405 120.25V120.338H159.338C158.976 120.338 158.718 120.55 158.61 120.877L157.297 124.741C157.297 124.741 157.122 125.322 157.101 125.731H157.013L155.334 121.457L154.172 124.741C154.172 124.741 154.001 125.301 153.98 125.731H153.893L152.022 120.83C151.893 120.53 151.655 120.338 151.309 120.338H151.227V120.25H153.076V120.338H153.009C152.818 120.338 152.601 120.467 152.689 120.809L153.893 124.482L155.401 120.1H155.489L157.101 124.203L158.114 120.877C158.222 120.488 158.026 120.338 157.835 120.338H157.767V120.25H159.405Z" fill="white"/>
<path d="M163.496 125.627H159.854V125.539H159.983C160.262 125.539 160.479 125.322 160.5 125.063V120.809C160.5 120.53 160.262 120.338 159.983 120.338H159.854V120.25H162.484C162.825 120.25 163.321 120.162 163.47 120.1V121.115H163.388V120.985C163.388 120.726 163.191 120.53 162.933 120.509H161.063V122.799H162.613C162.85 122.799 162.954 122.623 162.954 122.431V122.301H163.062V123.576H162.954V123.446C162.954 123.249 162.85 123.078 162.633 123.078H161.063V125.368H162.484C163.341 125.342 163.646 124.933 163.904 124.353H163.987L163.496 125.627Z" fill="white"/>
<path d="M166.916 120.25C168.037 120.25 168.724 120.789 168.724 121.695C168.724 122.452 168.14 123.099 167.345 123.187C167.541 123.27 167.841 123.617 168.037 123.876C168.037 123.876 168.445 124.436 168.812 124.871C169.179 125.28 169.437 125.539 169.928 125.539V125.627H169.649C168.662 125.627 168.249 125.192 167.97 124.85C167.887 124.721 167.174 123.705 167.112 123.617C166.854 123.317 166.549 123.011 166.182 123.011V122.928C166.182 122.928 166.42 122.928 166.699 122.928C167.195 122.902 167.758 122.902 168.016 122.151C168.058 122.022 168.099 121.825 168.078 121.633C168.058 120.96 167.603 120.571 166.895 120.53C166.399 120.509 165.95 120.53 165.862 120.53V125.063C165.862 125.322 166.079 125.539 166.379 125.539H166.487V125.627H164.658V125.539H164.787C165.066 125.539 165.278 125.342 165.304 125.063V120.789C165.278 120.53 165.066 120.338 164.787 120.338H164.658V120.25H166.916Z" fill="white"/>
<path d="M170.274 125.627L170.294 125.539H170.403C170.749 125.539 171.007 125.322 171.007 125.063V120.809C171.007 120.55 170.749 120.338 170.403 120.338H170.294L170.274 120.25H172.32V120.338H172.19C171.865 120.338 171.607 120.53 171.586 120.809V125.063C171.586 125.322 171.865 125.539 172.19 125.539H172.32V125.627H170.274Z" fill="white"/>
<path d="M179.465 120.25V120.338H179.315C179.056 120.338 178.839 120.53 178.819 120.789V124.612C178.819 125.192 178.907 125.757 178.907 125.757H178.819L174.169 121.327V125.083C174.169 125.342 174.386 125.539 174.665 125.539H174.815V125.627H173.115V125.539H173.265C173.544 125.539 173.761 125.342 173.761 125.083V121.219C173.761 120.618 173.673 120.1 173.673 120.1L173.781 120.12L178.431 124.503V120.789C178.411 120.53 178.194 120.338 177.935 120.338H177.786V120.25H179.465Z" fill="white"/>
<path d="M185.684 124.612C185.276 125.13 184.393 125.757 183.127 125.757C181.36 125.757 180.198 124.674 180.198 122.949C180.198 121.177 181.36 120.12 183.127 120.12C183.964 120.12 184.61 120.291 185.235 120.659L185.426 121.934H185.343C185.085 120.877 184.372 120.379 183.127 120.379C181.748 120.379 180.843 121.348 180.843 122.949C180.843 124.524 181.768 125.498 183.127 125.498C183.876 125.498 184.548 125.26 185.106 124.721L185.126 123.508C185.126 123.291 184.956 123.161 184.698 123.161H184.568V123.078H186.227V123.161H186.098C185.839 123.161 185.684 123.291 185.684 123.529V124.612Z" fill="white"/>
<path d="M194.663 119.343V119.426H194.534C194.167 119.426 193.821 119.685 193.63 119.944L191.863 122.819V124.98C191.863 125.301 192.121 125.539 192.447 125.539H192.555V125.627H190.592V125.539H190.7C191.026 125.539 191.284 125.301 191.284 124.98V122.819L189.584 119.944C189.409 119.685 189.042 119.426 188.68 119.426H188.546V119.343H190.767V119.426H190.638C190.38 119.426 190.204 119.732 190.333 119.991L191.672 122.514L193.113 119.991C193.242 119.732 193.025 119.426 192.788 119.426H192.684V119.343H194.663Z" fill="white"/>
<path fill-rule="evenodd" clip-rule="evenodd" d="M197.318 125.757C195.649 125.757 194.296 124.493 194.296 122.939C194.296 121.379 195.649 120.12 197.318 120.12C198.992 120.12 200.346 121.379 200.346 122.939C200.346 124.493 198.992 125.757 197.318 125.757ZM199.679 122.939C199.679 121.524 198.625 120.379 197.318 120.379C196.016 120.379 194.962 121.524 194.962 122.939C194.962 124.353 196.016 125.498 197.318 125.498C198.625 125.498 199.679 124.353 199.679 122.939Z" fill="white"/>
<path d="M206.674 120.25V120.338H206.545C206.307 120.338 206.116 120.488 206.116 120.7V123.726C206.116 125 205.253 125.757 203.874 125.757C202.474 125.757 201.637 125 201.637 123.747V120.726C201.616 120.488 201.44 120.338 201.208 120.338H201.053V120.25H202.758V120.338H202.629C202.391 120.338 202.195 120.488 202.195 120.726V123.638C202.195 124.804 202.84 125.519 203.853 125.519C204.995 125.519 205.682 124.85 205.682 123.726V120.726C205.682 120.488 205.491 120.338 205.253 120.338H205.124V120.25H206.674Z" fill="white"/>
<path d="M209.732 120.25C210.848 120.25 211.535 120.789 211.535 121.695C211.535 122.452 210.956 123.099 210.161 123.187C210.352 123.27 210.657 123.617 210.848 123.876C210.848 123.876 211.256 124.436 211.623 124.871C211.99 125.28 212.248 125.539 212.744 125.539V125.627H212.465C211.473 125.627 211.065 125.192 210.786 124.85C210.698 124.721 209.99 123.705 209.923 123.617C209.665 123.317 209.365 123.011 208.998 123.011V122.928C208.998 122.928 209.236 122.928 209.515 122.928C210.011 122.902 210.569 122.902 210.827 122.151C210.868 122.022 210.915 121.825 210.894 121.633C210.868 120.96 210.419 120.571 209.706 120.53C209.215 120.509 208.761 120.53 208.673 120.53V125.063C208.673 125.322 208.89 125.539 209.189 125.539H209.298V125.627H207.469V125.539H207.598C207.877 125.539 208.094 125.342 208.115 125.063V120.789C208.094 120.53 207.877 120.338 207.598 120.338H207.469V120.25H209.732Z" fill="white"/>
<path d="M217.713 119.343C218.876 119.343 219.568 120.011 219.568 121.068C219.568 122.452 218.08 123.187 216.959 122.581V122.493C216.959 122.493 218.447 122.819 218.834 121.524C218.876 121.395 218.897 121.177 218.897 120.985C218.876 120.162 218.447 119.602 217.693 119.602H216.659V124.98C216.659 125.301 216.918 125.539 217.243 125.539H217.352V125.627H215.388V125.539H215.497C215.822 125.539 216.06 125.301 216.081 124.98V119.944C216.034 119.664 215.802 119.426 215.497 119.426H215.388V119.343H217.713Z" fill="white"/>
<path fill-rule="evenodd" clip-rule="evenodd" d="M224.429 125.021C224.626 125.389 224.905 125.539 225.142 125.539H225.204V125.627H223.355V125.539H223.443C223.634 125.539 223.871 125.342 223.742 125.001L223.246 123.809H220.989L220.493 124.98C220.363 125.342 220.601 125.539 220.813 125.539H220.88V125.627H219.18V125.539H219.242C219.48 125.539 219.759 125.389 219.935 125.021L221.805 121.048C221.805 121.048 222.13 120.359 222.151 120.12H222.234L224.429 125.021ZM223.138 123.529L222.13 121.068L221.097 123.529H223.138Z" fill="white"/>
<path d="M228.588 120.229C228.929 120.229 229.425 120.162 229.575 120.1V121.115H229.487V120.96C229.487 120.7 229.316 120.509 229.037 120.509H227.42V125.063C227.42 125.322 227.658 125.539 227.942 125.539H228.046V125.627H226.196V125.539H226.304C226.604 125.539 226.821 125.322 226.842 125.063V120.509H225.204C224.946 120.509 224.754 120.7 224.754 120.96V121.115H224.667V120.1C224.816 120.162 225.312 120.229 225.659 120.229H228.588Z" fill="white"/>
<path d="M234.095 125.627V125.539H234.203C234.482 125.539 234.699 125.322 234.72 125.063V123.099H231.403V125.063C231.429 125.322 231.641 125.539 231.92 125.539H232.028V125.627H230.199L230.22 125.539H230.308C230.607 125.539 230.824 125.322 230.845 125.063V120.809C230.824 120.55 230.607 120.338 230.308 120.338H230.199V120.25H232.028V120.338H231.92C231.641 120.338 231.429 120.53 231.403 120.809V122.84H234.72V120.809C234.72 120.55 234.482 120.338 234.203 120.338H234.095V120.25H235.924V120.338H235.82C235.536 120.338 235.304 120.53 235.278 120.809V125.063C235.304 125.322 235.536 125.539 235.82 125.539H235.924V125.627H234.095Z" fill="white"/>
<path d="M242.707 120.229C243.048 120.229 243.544 120.162 243.693 120.1V121.115H243.611V120.96C243.611 120.7 243.435 120.509 243.156 120.509H241.544V125.063C241.544 125.322 241.782 125.539 242.061 125.539H242.169V125.627H240.315V125.539H240.423C240.702 125.539 240.94 125.322 240.94 125.063V120.509H239.328C239.049 120.509 238.873 120.7 238.873 120.96V121.115H238.79V120.1C238.94 120.162 239.436 120.229 239.777 120.229H242.707Z" fill="white"/>
<path fill-rule="evenodd" clip-rule="evenodd" d="M247.041 125.757C245.372 125.757 244.018 124.493 244.018 122.939C244.018 121.379 245.372 120.12 247.041 120.12C248.715 120.12 250.068 121.379 250.068 122.939C250.068 124.493 248.715 125.757 247.041 125.757ZM249.402 122.939C249.402 121.524 248.343 120.379 247.03 120.379C245.723 120.379 244.664 121.524 244.664 122.939C244.664 124.353 245.723 125.498 247.03 125.498C248.343 125.498 249.402 124.353 249.402 122.939Z" fill="white"/>
<path d="M256.05 122.99C256.397 123.317 256.484 123.726 256.484 124.073C256.484 125.063 255.839 125.757 254.826 125.757C254.371 125.757 253.643 125.627 253.297 125.28C253.229 125 253.255 124.415 253.405 124.027H253.467C253.384 124.933 253.963 125.539 254.779 125.498C255.425 125.451 255.968 125 255.968 124.286C255.968 123.938 255.839 123.659 255.622 123.446L253.901 121.845C253.534 121.524 253.426 121.089 253.426 120.747C253.426 119.97 253.963 119.214 254.996 119.214C255.234 119.214 255.513 119.255 255.771 119.296H256.118V119.405V120.421H256.03C256.03 119.84 255.575 119.493 255.017 119.493C254.351 119.493 253.922 119.97 253.922 120.53C253.922 120.747 254.004 121.089 254.283 121.348L256.05 122.99Z" fill="white"/>
<path d="M262.963 120.25V120.338H262.834C262.596 120.338 262.425 120.488 262.4 120.7V123.726C262.4 125 261.563 125.757 260.162 125.757C258.783 125.757 257.925 125 257.925 123.747V120.726C257.925 120.488 257.729 120.338 257.491 120.338H257.362V120.25H259.067V120.338H258.938C258.7 120.338 258.504 120.488 258.504 120.726V123.638C258.504 124.804 259.129 125.519 260.162 125.519C261.284 125.519 261.991 124.85 261.991 123.726V120.726C261.971 120.488 261.8 120.338 261.563 120.338H261.433V120.25H262.963Z" fill="white"/>
<path d="M269.141 123.379L269.033 124.612C268.578 125.322 267.633 125.757 266.579 125.757C264.745 125.757 263.608 124.674 263.608 122.928C263.608 121.177 264.745 120.12 266.579 120.12C267.307 120.12 268.103 120.312 268.666 120.659L268.857 121.934H268.795C268.516 120.83 267.674 120.379 266.553 120.379C265.137 120.379 264.254 121.348 264.254 122.949C264.254 124.503 265.158 125.472 266.579 125.472C267.912 125.498 268.966 124.85 269.053 123.379H269.141Z" fill="white"/>
<path d="M275.64 123.379L275.532 124.612C275.082 125.322 274.132 125.757 273.078 125.757C271.249 125.757 270.107 124.674 270.107 122.928C270.107 121.177 271.249 120.12 273.078 120.12C273.811 120.12 274.627 120.312 275.165 120.659L275.361 121.934H275.294C275.015 120.83 274.178 120.379 273.057 120.379C271.657 120.379 270.753 121.348 270.753 122.949C270.753 124.503 271.657 125.472 273.078 125.472C274.411 125.498 275.464 124.85 275.552 123.379H275.64Z" fill="white"/>
<path d="M280.119 125.627H276.476V125.539H276.606C276.885 125.539 277.122 125.322 277.122 125.063V120.809C277.122 120.53 276.91 120.338 276.606 120.338H276.476V120.25H279.106C279.468 120.25 279.943 120.162 280.093 120.1V121.115H280.01V120.985C280.01 120.726 279.835 120.53 279.556 120.509H277.706V122.799H279.235C279.468 122.799 279.597 122.623 279.597 122.431V122.301H279.685V123.576H279.597V123.446C279.597 123.249 279.494 123.078 279.256 123.078H277.706V125.368H279.106C279.964 125.342 280.269 124.933 280.527 124.353H280.61L280.119 125.627Z" fill="white"/>
<path d="M284.143 123.358C284.422 123.576 284.531 123.964 284.551 124.306C284.551 125.109 283.838 125.757 282.96 125.757C282.417 125.757 281.73 125.627 281.41 125.342C281.343 125.109 281.364 124.565 281.493 124.223H281.601C281.513 125.021 282.076 125.519 282.851 125.498C283.606 125.472 284.055 125.083 284.055 124.503C284.055 124.223 283.948 123.985 283.735 123.788L281.927 122.41C281.601 122.104 281.513 121.737 281.493 121.436C281.493 120.7 282.159 120.12 282.981 120.12C283.389 120.12 283.668 120.141 283.864 120.203H284.164L284.184 121.177H284.076C284.076 120.68 283.756 120.379 283.043 120.379C282.443 120.379 281.968 120.768 281.968 121.244C281.968 121.478 282.03 121.716 282.309 121.954L284.143 123.358Z" fill="white"/>
<path d="M288.276 123.358C288.555 123.576 288.684 123.964 288.684 124.306C288.684 125.109 287.971 125.757 287.093 125.757C286.576 125.757 285.884 125.627 285.563 125.342C285.496 125.109 285.517 124.565 285.646 124.223H285.734C285.672 125.021 286.209 125.519 287.005 125.498C287.739 125.472 288.188 125.083 288.188 124.503C288.188 124.223 288.1 123.985 287.868 123.788L286.08 122.41C285.734 122.104 285.646 121.737 285.646 121.436C285.625 120.7 286.292 120.12 287.134 120.12C287.542 120.12 287.821 120.141 288.018 120.203H288.317V121.177H288.229C288.229 120.68 287.888 120.379 287.196 120.379C286.597 120.379 286.101 120.768 286.121 121.244C286.121 121.478 286.189 121.716 286.468 121.954L288.276 123.358Z" fill="white"/>
<path fill-rule="evenodd" clip-rule="evenodd" d="M140.871 85.7451C141.002 85.7865 141.095 85.8729 141.15 86.0041C141.209 86.1319 141.209 86.2614 141.15 86.3927C141.095 86.5377 141.002 86.6379 140.871 86.6932C138.818 87.5428 136.881 88.4287 135.059 89.3509C133.712 95.1947 132.033 100.066 130.021 103.966C128.571 106.846 127.008 109.1 125.33 110.727C123.653 112.353 122.017 113.217 120.422 113.317C120.336 113.331 120.25 113.338 120.164 113.338C119.217 113.338 118.412 113.049 117.751 112.473C117.093 111.913 116.649 111.122 116.418 110.1C116.201 109.136 116.201 108.043 116.418 106.82C116.632 105.608 117.148 104.247 117.968 102.738C118.802 101.225 119.885 99.7072 121.218 98.184C122.568 96.6574 124.356 95.0583 126.581 93.3867C128.806 91.7047 131.337 90.1211 134.175 88.6359C135.267 83.7868 136.114 78.4178 136.717 72.529C136.776 71.9971 136.812 71.5447 136.826 71.1717C136.64 71.5896 136.325 72.3097 135.88 73.332C135.377 74.5098 134.968 75.4527 134.651 76.1607C134.334 76.8653 133.853 77.8721 133.209 79.1811C132.562 80.4901 131.973 81.5988 131.442 82.5071C130.898 83.412 130.252 84.3756 129.505 85.398C128.775 86.4203 128.058 87.2769 127.356 87.9676C125 90.1712 123.133 91.0502 121.755 90.6046C120.794 90.3145 120.178 89.4787 119.905 88.0971C119.661 86.802 119.733 85.2046 120.122 83.305C120.522 81.4192 121.218 79.5265 122.21 77.6269C123.198 75.7411 124.361 74.2369 125.697 73.1144C125.811 73.0281 125.94 72.9918 126.085 73.0056C126.226 73.0056 126.339 73.0626 126.426 73.1766C126.512 73.2802 126.555 73.4028 126.555 73.5444C126.541 73.6895 126.484 73.8121 126.384 73.9123C125.165 74.9346 124.089 76.3317 123.155 78.1035C122.222 79.8857 121.562 81.6627 121.176 83.4345C120.787 85.2063 120.708 86.6966 120.939 87.9055C121.139 88.8691 121.519 89.4372 122.081 89.6099C123.069 89.9277 124.583 89.1281 126.622 87.2112C127.197 86.6655 127.771 86.0248 128.342 85.2892C128.931 84.557 129.491 83.7367 130.021 82.8283C130.552 81.9234 131.025 81.0962 131.442 80.3468C131.873 79.5835 132.333 78.6768 132.822 77.6269C133.311 76.5769 133.676 75.7704 133.917 75.2075C134.175 74.6479 134.513 73.8846 134.93 72.9176C135.691 71.163 136.201 70.0699 136.459 69.6382C136.717 69.1926 137.019 69.013 137.363 69.0994C137.649 69.1719 137.821 69.4378 137.88 69.8972C137.938 70.3427 137.895 71.2563 137.751 72.6378C137.193 78.2226 136.397 83.3619 135.364 88.0557C136.982 87.2337 138.689 86.4635 140.484 85.7451C140.601 85.6864 140.73 85.6864 140.871 85.7451ZM129.117 103.494C130.97 99.8505 132.55 95.3519 133.855 89.9985C128.472 92.9066 124.316 96.11 121.388 99.6087C119.842 101.45 118.715 103.284 118.009 105.111C117.307 106.924 117.121 108.514 117.451 109.882C117.624 110.69 117.968 111.303 118.485 111.721C118.988 112.153 119.604 112.34 120.334 112.281C121.726 112.194 123.197 111.374 124.746 109.82C126.296 108.28 127.753 106.171 129.117 103.494Z" fill="white"/>
<path fill-rule="evenodd" clip-rule="evenodd" d="M149.998 87.9887C150.143 87.9748 150.272 88.0111 150.386 88.0974C150.499 88.1838 150.572 88.2995 150.603 88.4446C150.616 88.5896 150.58 88.7191 150.494 88.8331C149.747 89.7967 148.856 90.5445 147.823 91.0764C146.803 91.6255 145.842 91.7982 144.94 91.5944C144.682 92.2161 144.33 92.6997 143.886 93.045C143.425 93.4042 142.958 93.5838 142.486 93.5838H142.439C141.954 93.57 141.532 93.4043 141.174 93.0865C140.798 92.7687 140.54 92.3301 140.399 91.7706C140.154 90.8761 140.189 90.0264 140.502 89.2217C140.819 88.4169 141.279 87.8263 141.881 87.4499C142.012 87.3635 142.157 87.3428 142.315 87.3877C142.47 86.9974 142.7 86.6952 143.003 86.4811C143.302 86.2635 143.611 86.1771 143.927 86.222C144.113 86.2635 144.286 86.3412 144.444 86.4552C144.589 86.5726 144.74 86.7608 144.899 87.0199C145.054 87.2651 145.167 87.6536 145.24 88.1855C145.312 88.7036 145.328 89.3287 145.286 90.0609C145.269 90.2336 145.247 90.415 145.219 90.6049C145.894 90.7465 146.655 90.5738 147.503 90.0869C148.333 89.5964 149.049 88.9626 149.652 88.1855C149.738 88.0715 149.853 88.0059 149.998 87.9887ZM142.486 92.527C142.73 92.527 142.996 92.4113 143.282 92.1799C143.554 91.9346 143.783 91.6186 143.969 91.2318C142.794 90.5687 142.178 89.6758 142.119 88.5533C141.761 88.8987 141.516 89.3667 141.385 89.9573C141.244 90.5307 141.244 91.0332 141.385 91.4649C141.589 92.173 141.956 92.527 142.486 92.527ZM144.227 89.9988C144.272 89.5671 144.28 89.1923 144.253 88.8746C144.222 88.5603 144.186 88.3012 144.144 88.0974C144.113 87.8971 144.07 87.7313 144.015 87.6001C143.957 87.4861 143.905 87.3998 143.86 87.3411C143.819 87.2858 143.791 87.2582 143.778 87.2582H143.757C143.685 87.2582 143.59 87.3151 143.473 87.4291C143.373 87.5431 143.295 87.702 143.24 87.9058C143.123 88.2926 143.137 88.6811 143.282 89.0714C143.426 89.4721 143.741 89.8382 144.227 90.1697C144.227 90.1145 144.227 90.0575 144.227 89.9988Z" fill="white"/>
<path d="M159.622 88.0768C159.777 88.063 159.913 88.0923 160.031 88.1648C160.144 88.2374 160.215 88.3444 160.242 88.486C160.287 88.6311 160.273 88.7537 160.201 88.8539C159.984 89.1993 159.746 89.5671 159.488 89.9574C159.247 90.3442 158.875 90.8761 158.372 91.5531C157.869 92.2162 157.396 92.7999 156.951 93.3041C156.507 93.7911 156.018 94.2298 155.484 94.62C154.967 94.9931 154.516 95.1796 154.13 95.1796C153.986 95.1796 153.863 95.1519 153.764 95.0967C152.889 94.7789 152.644 93.3957 153.03 90.9469C152.427 91.7689 151.883 92.3889 151.397 92.8068C150.695 93.3974 150.085 93.4682 149.568 93.0192C149.079 92.6186 148.855 91.914 148.897 90.9055C148.942 89.8831 149.236 88.904 149.78 87.968C149.853 87.8402 149.961 87.7538 150.106 87.7089C150.247 87.6813 150.383 87.7038 150.514 87.7763C150.641 87.8488 150.721 87.949 150.752 88.0768C150.793 88.2218 150.777 88.3583 150.705 88.486C150.392 88.9903 150.176 89.5239 150.059 90.0869C149.946 90.6464 149.911 91.1144 149.956 91.4909C149.997 91.8501 150.083 92.0867 150.214 92.2006C150.3 92.287 150.473 92.2231 150.731 92.009C151.203 91.6049 151.79 90.8916 152.493 89.8693C152.61 89.6966 152.703 89.574 152.772 89.5015C152.83 89.4151 152.903 89.315 152.989 89.201C153.089 89.0836 153.168 89.0041 153.226 88.9627C153.268 88.9351 153.324 88.8988 153.397 88.8539C153.469 88.7952 153.541 88.7744 153.614 88.7917C153.686 88.8055 153.772 88.8263 153.872 88.8539C154.103 88.954 154.225 89.163 154.239 89.4808C154.266 89.7985 154.223 90.2078 154.11 90.7086C153.907 91.7033 153.827 92.4597 153.872 92.9778C153.913 93.5096 153.956 93.8343 154.001 93.9517C154.043 94.0657 154.086 94.1227 154.13 94.1227C154.189 94.1641 154.282 94.1503 154.409 94.0812C154.554 94.0225 154.719 93.9206 154.905 93.7756C155.091 93.634 155.307 93.4475 155.551 93.2161C155.782 92.9847 156.047 92.7118 156.347 92.3975C156.636 92.066 156.938 91.705 157.251 91.3147C157.554 90.9279 157.885 90.4755 158.243 89.9574C158.601 89.4393 158.952 88.8919 159.297 88.3151C159.369 88.1838 159.476 88.1044 159.617 88.0768H159.622Z" fill="white"/>
<path fill-rule="evenodd" clip-rule="evenodd" d="M170.254 87.8383C170.382 87.7969 170.511 87.8038 170.642 87.859C170.769 87.9316 170.862 88.0335 170.921 88.1647C170.965 88.3063 170.952 88.4358 170.879 88.5532C170.39 89.6032 169.844 90.6825 169.242 91.7912C168.625 92.8999 167.95 94.0155 167.216 95.138C166.486 96.2743 165.761 97.1947 165.041 97.8993C164.325 98.6212 163.708 98.9821 163.192 98.9821C163.078 98.9821 162.962 98.9527 162.845 98.894C162.101 98.6073 161.865 97.4848 162.138 95.5265C162.396 93.7133 163.062 91.1298 164.137 87.7761C164.123 87.7761 164.109 87.783 164.096 87.7969C164.096 87.7969 164.089 87.7969 164.075 87.7969C163.672 88.0697 163.341 88.2787 163.083 88.4237C162.811 88.5653 162.46 88.7311 162.029 88.9211C161.585 89.0938 161.161 89.1715 160.758 89.1542C160.372 89.1404 160.007 89.0109 159.663 88.7657C158.974 88.2925 158.623 87.6173 158.609 86.74C158.578 85.8765 158.9 84.9267 159.575 83.8906C159.992 83.2413 160.495 82.6714 161.084 82.1809C161.673 81.694 162.167 81.5869 162.566 81.8597C162.825 82.0013 162.976 82.2379 163.021 82.5695C163.062 82.8872 162.904 83.5141 162.546 84.4501C162.188 85.3861 161.585 86.6018 160.737 88.0973C161.299 88.1699 162.217 87.7813 163.491 86.9317C163.736 86.7728 163.917 86.6571 164.034 86.5846C164.147 86.5293 164.283 86.4654 164.442 86.3929C164.583 86.3204 164.712 86.291 164.829 86.3048C164.929 86.3186 165.036 86.3618 165.15 86.4343C165.422 86.6519 165.465 87.0336 165.279 87.5793C163.471 93.1952 162.761 96.5989 163.15 97.7905C163.178 97.863 163.205 97.9148 163.233 97.9459C163.378 97.9736 163.593 97.8579 163.879 97.5988C164.182 97.3398 164.555 96.9443 165 96.4124C165.444 95.8633 165.925 95.2071 166.441 94.4438C166.944 93.6839 167.511 92.7566 168.141 91.6617C168.761 90.553 169.357 89.3718 169.929 88.1181C170.001 87.9765 170.109 87.8832 170.254 87.8383ZM159.725 86.0043C159.57 86.6364 159.606 87.1475 159.833 87.5378C161.156 85.2341 161.867 83.6713 161.967 82.8493C161.736 82.9805 161.485 83.1895 161.213 83.4761C160.927 83.7662 160.639 84.1479 160.35 84.6211C160.05 85.0839 159.842 85.545 159.725 86.0043Z" fill="white"/>
<path fill-rule="evenodd" clip-rule="evenodd" d="M197.676 70.2184C198.537 71.0266 199.24 72.1578 199.784 73.6118C200.345 75.0797 200.726 76.7634 200.926 78.663C201.143 80.5765 201.086 82.7506 200.755 85.1856C200.425 87.6171 199.829 90.0987 198.968 92.6303C198.107 95.1792 197.116 97.4398 195.997 99.4119C194.877 101.37 193.737 102.924 192.577 104.075C191.426 105.242 190.284 106.114 189.151 106.691C188.032 107.264 186.949 107.551 185.902 107.551C185.344 107.551 184.82 107.48 184.331 107.338C183.125 106.962 182.106 106.183 181.272 105.002C180.439 103.824 179.85 102.32 179.505 100.489C178.748 96.4312 179.23 91.3006 180.952 85.0975C181.252 83.9888 181.603 82.9026 182.006 81.8388C182.406 80.7578 182.857 79.6992 183.36 78.663C183.876 77.6131 184.422 76.6702 184.997 75.8343C185.586 74.9985 186.225 74.2715 186.914 73.6533C187.603 73.0212 188.313 72.5895 189.043 72.3581C189.36 72.2441 189.677 72.1716 189.993 72.1405C190.996 70.6726 192.086 69.7021 193.264 69.2289C194.841 68.5934 196.312 68.9232 197.676 70.2184ZM198.001 92.3091C198.804 89.9052 199.364 87.5376 199.681 85.2063C199.994 82.8577 200.065 80.7768 199.892 78.9635C199.72 77.1503 199.383 75.5529 198.88 74.1713C198.38 72.776 197.743 71.7105 196.968 70.9748C195.918 69.9974 194.805 69.7452 193.631 70.2184C192.811 70.5362 192.014 71.2062 191.239 72.2286C191.872 72.3736 192.482 72.6758 193.067 73.1352C193.185 73.2353 193.25 73.3579 193.264 73.503C193.278 73.6481 193.241 73.7707 193.155 73.8709C193.055 73.9848 192.94 74.0487 192.809 74.0625C192.682 74.0763 192.553 74.0401 192.422 73.9537C191.805 73.4806 191.189 73.2302 190.572 73.2025C189.167 75.4337 187.975 78.7217 186.997 83.0667C186.008 87.4288 185.371 92.8773 185.085 99.4119C185.085 99.557 185.034 99.6796 184.93 99.7797C184.817 99.8799 184.687 99.9231 184.543 99.9093C184.402 99.9093 184.281 99.8523 184.181 99.7383C184.078 99.6347 184.035 99.519 184.052 99.3912C184.224 95.4607 184.539 91.8411 184.997 88.5323C185.469 85.2063 186.058 82.2757 186.764 79.7406C187.467 77.209 188.292 75.0935 189.239 73.3942C187.875 73.9123 186.534 75.2506 185.214 77.4093C183.906 79.5852 182.814 82.2343 181.939 85.3565C181.264 87.8329 180.783 90.1574 180.497 92.3298C180.225 94.5023 180.139 96.3743 180.239 97.9457C180.353 99.5276 180.604 100.916 180.993 102.111C181.396 103.306 181.906 104.242 182.523 104.919C183.139 105.61 183.842 106.085 184.631 106.344C185.605 106.644 186.668 106.579 187.818 106.147C188.979 105.715 190.155 104.945 191.347 103.836C192.539 102.731 193.715 101.184 194.876 99.1943C196.054 97.2084 197.096 94.9133 198.001 92.3091Z" fill="white"/>
<path d="M218.944 87.7555C219.085 87.7555 219.208 87.8056 219.311 87.9058C219.411 88.0059 219.461 88.1285 219.461 88.2736C219.475 88.4152 219.425 88.5361 219.311 88.6363C218.464 89.517 217.603 90.1214 216.728 90.4495C215.849 90.7984 215.045 90.864 214.315 90.6464C213.468 90.4012 212.808 89.8261 212.336 88.9212C212.061 89.9263 211.751 90.8899 211.406 91.8121C210.893 93.1521 210.442 94.0519 210.053 94.5112C209.681 94.9568 209.322 95.1864 208.978 95.2003C208.33 95.2313 207.878 94.62 207.619 93.3663C207.578 93.0658 207.535 92.7066 207.49 92.2887C206.384 93.9707 205.566 95.0638 205.036 95.5681C204.619 95.9584 204.218 96.1535 203.832 96.1535C203.615 96.1535 203.421 96.0948 203.248 95.9774C202.56 95.5318 202.281 94.3731 202.411 92.5011C202.556 90.6326 203.059 88.4808 203.92 86.0459C203.975 85.9181 204.068 85.8179 204.199 85.7454C204.313 85.6867 204.442 85.6798 204.586 85.7247C204.714 85.7661 204.814 85.8594 204.886 86.0044C204.945 86.1322 204.945 86.2618 204.886 86.393C204.297 88.0612 203.887 89.5791 203.657 90.9469C203.429 92.3284 203.352 93.3369 203.424 93.9724C203.479 94.6045 203.608 94.9792 203.812 95.0966C203.88 95.1519 204.053 95.0569 204.328 94.8117C204.886 94.2798 205.94 92.7912 207.49 90.3459C207.621 90.1283 207.807 90.0558 208.048 90.1283C208.306 90.2008 208.436 90.3735 208.436 90.6464C208.436 91.5962 208.508 92.4389 208.653 93.1746C208.739 93.6478 208.847 93.9707 208.978 94.1434C209.336 93.912 209.83 92.976 210.461 91.3354C211.091 89.6949 211.501 88.2063 211.69 86.8696C211.704 86.7522 211.761 86.6503 211.861 86.564C211.961 86.4776 212.076 86.4344 212.207 86.4344C212.493 86.4206 212.665 86.557 212.724 86.8437C213.023 88.429 213.654 89.365 214.615 89.6517C215.145 89.8106 215.763 89.7398 216.469 89.4393C217.172 89.1215 217.875 88.6104 218.577 87.9058C218.677 87.8056 218.8 87.7555 218.944 87.7555Z" fill="white"/>
<path d="M228.63 87.9058C228.771 87.8747 228.907 87.8954 229.038 87.9679C229.152 88.0405 229.231 88.1423 229.276 88.2736C229.303 88.4152 229.281 88.5447 229.209 88.6621C228.606 89.7536 228.075 90.617 227.617 91.2525C227.173 91.8846 226.713 92.3802 226.238 92.7394C225.766 93.0986 225.308 93.2506 224.864 93.1953C223.958 93.0951 223.247 92.1229 222.73 90.2785C222.344 89.0282 222.013 88.4031 221.738 88.4031C221.697 88.3858 221.626 88.4066 221.526 88.4653C221.426 88.524 221.268 88.6898 221.051 88.9626C220.837 89.2217 220.593 89.574 220.317 90.0195C220.059 90.4789 219.723 91.1489 219.31 92.0296C218.879 92.9207 218.419 93.9707 217.93 95.1795C217.844 95.3971 217.686 95.5059 217.455 95.5059C217.414 95.5059 217.377 95.499 217.346 95.4852C217.033 95.4126 216.897 95.2244 216.938 94.9205C217.11 93.4388 217.786 90.6757 218.964 86.6313C219.091 86.2134 219.177 85.8956 219.222 85.678C219.28 85.5364 219.373 85.4363 219.501 85.3776C219.632 85.305 219.761 85.2912 219.888 85.3361C220.033 85.3637 220.141 85.4432 220.214 85.5744C220.283 85.7022 220.29 85.8386 220.234 85.9837C220.19 86.1115 220.097 86.4275 219.955 86.9318C219.566 88.3271 219.265 89.4134 219.051 90.1905C219.623 89.0991 220.124 88.3444 220.555 87.9265C220.985 87.5224 221.402 87.3272 221.805 87.3411C222.277 87.3583 222.651 87.6035 222.926 88.0767C223.212 88.5361 223.477 89.1768 223.722 89.9988C224.121 91.3941 224.545 92.1211 224.993 92.1799C225.206 92.2075 225.472 92.0849 225.788 91.812C226.102 91.5254 226.439 91.1144 226.801 90.579C227.173 90.0471 227.452 89.6309 227.638 89.3305C227.824 89.0127 228.046 88.6242 228.305 88.1648C228.377 88.0335 228.485 87.9472 228.63 87.9058Z" fill="white"/>
<path fill-rule="evenodd" clip-rule="evenodd" d="M262.169 87.5998C262.296 87.6309 262.403 87.7034 262.489 87.8174C262.589 87.9314 262.625 88.054 262.598 88.1852C262.57 88.3303 262.491 88.446 262.36 88.5323C259.563 90.5459 257.009 92.4455 254.698 94.2311C254.943 94.9806 254.97 95.794 254.781 96.6713C254.495 98.1391 253.972 99.5708 253.21 100.966C252.435 102.361 251.56 103.586 250.586 104.639C249.594 105.675 248.554 106.603 247.465 107.421C246.373 108.243 245.34 108.87 244.365 109.302C243.373 109.734 242.505 109.979 241.761 110.038C241.658 110.051 241.563 110.058 241.477 110.058C240.602 110.058 240.051 109.734 239.824 109.084C239.407 107.934 240.375 106.064 242.727 103.474C245.066 100.852 248.633 97.6625 253.427 93.9047C252.897 92.9135 251.834 91.9931 250.24 91.1434C248.648 90.3076 246.144 89.192 242.727 87.7967C241.78 87.4236 241.055 87.1283 240.552 86.9107C239.247 86.365 238.343 85.6311 237.84 84.7089C237.337 83.7868 237.273 82.7282 237.649 81.5331C238.121 80.0065 239.261 78.3522 241.069 76.57C242.864 74.7982 244.83 73.2422 246.969 71.9022C249.108 70.5655 251.268 69.4948 253.448 68.6901C255.614 67.8957 257.294 67.6349 258.485 67.9078C258.757 67.9665 259.009 68.0529 259.24 68.1668C259.47 68.2843 259.699 68.4587 259.927 68.6901C260.158 68.9319 260.323 69.2548 260.423 69.6589C260.523 70.063 260.536 70.5448 260.464 71.1043C260.45 71.1907 260.416 71.2701 260.361 71.3426C260.302 71.4152 260.23 71.4721 260.144 71.5136C260.058 71.5585 259.965 71.5671 259.865 71.5395C259.72 71.5222 259.605 71.4566 259.519 71.3426C259.433 71.2287 259.396 71.0991 259.41 70.9541C259.527 70.2771 259.47 69.7953 259.24 69.5086C259.009 69.222 258.685 69.0355 258.268 68.9491C257.61 68.7764 256.715 68.8265 255.582 69.0994C254.431 69.3722 253.16 69.8316 251.769 70.4774C250.364 71.1129 248.943 71.9056 247.506 72.8554C245.182 74.3095 243.223 75.843 241.632 77.4559C240.051 79.0654 239.061 80.5264 238.661 81.8388C238.059 83.6935 238.825 85.0681 240.961 85.9627C241.45 86.163 242.168 86.4497 243.115 86.8227C244.307 87.3131 245.197 87.681 245.786 87.9262C246.358 88.1714 247.11 88.4943 248.044 88.895C248.977 89.2991 249.702 89.6531 250.219 89.957C250.722 90.2437 251.268 90.5735 251.857 90.9466C252.459 91.323 252.947 91.6978 253.319 92.0708C253.708 92.4438 254.023 92.8392 254.264 93.2572C256.548 91.4888 259.045 89.6324 261.756 87.6879C261.887 87.6015 262.024 87.5721 262.169 87.5998ZM253.794 96.4537C253.894 95.908 253.901 95.4037 253.815 94.9409C249.967 97.9665 246.918 100.622 244.665 102.909C243.346 104.277 242.333 105.485 241.627 106.535C240.924 107.603 240.645 108.33 240.79 108.716C240.862 108.934 241.164 109.027 241.694 108.996C242.297 108.941 243.05 108.718 243.952 108.328C244.844 107.927 245.8 107.345 246.819 106.582C247.835 105.819 248.81 104.955 249.744 103.992C250.663 103.025 251.497 101.873 252.244 100.536C252.974 99.2098 253.491 97.849 253.794 96.4537Z" fill="white"/>
<path d="M284.296 77.9947C284.395 78.1087 284.432 78.2382 284.404 78.3833C284.39 78.5249 284.318 78.6389 284.187 78.7252C283.97 78.8703 283.769 78.8634 283.583 78.7045C282.708 78.404 276.623 78.3764 265.329 78.6216C264.169 83.5709 262.977 88.9244 261.754 94.6819C260.321 101.648 259.446 106.435 259.13 109.043C259.174 109.043 259.217 109.057 259.259 109.084C259.403 109.112 259.496 109.198 259.538 109.343C259.596 109.475 259.596 109.604 259.538 109.732C259.452 110.022 259.381 110.231 259.326 110.359C259.254 110.504 259.152 110.64 259.021 110.768C258.907 110.913 258.778 110.986 258.634 110.986C258.575 110.986 258.511 110.972 258.442 110.944C258.198 110.872 258.053 110.683 258.008 110.38C257.967 110.079 257.989 109.661 258.076 109.126C258.148 108.366 258.313 107.273 258.572 105.846C259.03 103.139 259.703 99.6122 260.592 95.2673C261.811 89.4096 263.032 83.8749 264.255 78.6631C263.032 78.6769 261.51 78.7131 259.688 78.7719C256.805 78.8444 255.105 78.8806 254.588 78.8806C254.444 78.8806 254.321 78.8288 254.221 78.7252C254.121 78.6251 254.072 78.5042 254.072 78.3626C254.072 78.259 254.099 78.1726 254.154 78.1035C254.199 78.0172 254.258 77.9516 254.33 77.9067C254.416 77.8652 254.502 77.8445 254.588 77.8445C255.091 77.8445 256.777 77.8013 259.646 77.715C261.441 77.6701 263.07 77.6338 264.534 77.6062C265.105 75.2161 265.615 73.1853 266.063 71.5136C266.104 71.372 266.19 71.265 266.321 71.1924C266.435 71.1199 266.564 71.0975 266.709 71.1251C266.836 71.17 266.936 71.2563 267.008 71.3841C267.081 71.5154 267.101 71.6535 267.07 71.7986C266.64 73.3942 266.146 75.3146 265.588 77.5596C270.999 77.418 275.082 77.3679 277.837 77.4093C280.593 77.4404 282.329 77.4991 283.045 77.5855C283.762 77.6718 284.178 77.8082 284.296 77.9947Z" fill="white"/>
<path fill-rule="evenodd" clip-rule="evenodd" d="M274.478 87.9887C274.619 87.9748 274.749 88.0111 274.866 88.0974C274.993 88.1838 275.064 88.2995 275.078 88.4446C275.095 88.5896 275.06 88.7191 274.974 88.8331C274.227 89.7967 273.343 90.5445 272.324 91.0764C271.29 91.6255 270.323 91.7982 269.42 91.5944C269.176 92.2161 268.823 92.6997 268.361 93.045C267.917 93.4042 267.452 93.5838 266.966 93.5838H266.92C266.448 93.57 266.024 93.4043 265.649 93.0865C265.277 92.7687 265.018 92.3301 264.874 91.7706C264.646 90.8761 264.689 90.0264 265.003 89.2217C265.32 88.4169 265.773 87.8263 266.362 87.4499C266.489 87.3635 266.632 87.3428 266.79 87.3877C266.963 86.9974 267.193 86.6952 267.483 86.4811C267.782 86.2635 268.098 86.1771 268.428 86.222C268.6 86.2635 268.766 86.3412 268.924 86.4552C269.083 86.5726 269.233 86.7608 269.374 87.0199C269.532 87.2651 269.648 87.6536 269.72 88.1855C269.792 88.7036 269.806 89.3287 269.761 90.0609C269.747 90.2336 269.727 90.415 269.699 90.6049C270.374 90.7465 271.134 90.5738 271.978 90.0869C272.811 89.5964 273.529 88.9626 274.132 88.1855C274.218 88.0715 274.334 88.0059 274.478 87.9887ZM266.966 92.527C267.211 92.527 267.476 92.4113 267.762 92.1799C268.034 91.9346 268.263 91.6186 268.449 91.2318C267.271 90.5687 266.654 89.6758 266.599 88.5533C266.241 88.8987 265.997 89.3667 265.866 89.9573C265.721 90.5307 265.721 91.0332 265.866 91.4649C266.065 92.173 266.432 92.527 266.966 92.527ZM268.707 89.9988C268.752 89.5671 268.759 89.1923 268.728 88.8746C268.7 88.5603 268.673 88.3012 268.645 88.0974C268.6 87.8971 268.549 87.7313 268.49 87.6001C268.449 87.4861 268.399 87.3998 268.34 87.3411C268.299 87.2858 268.272 87.2582 268.258 87.2582H268.232C268.163 87.2582 268.07 87.3151 267.953 87.4291C267.853 87.5431 267.774 87.702 267.715 87.9058C267.602 88.2926 267.617 88.6811 267.762 89.0714C267.92 89.4721 268.235 89.8382 268.707 90.1697C268.707 90.1145 268.707 90.0575 268.707 89.9988Z" fill="white"/>
<path fill-rule="evenodd" clip-rule="evenodd" d="M285.048 87.8383C285.175 87.7969 285.305 87.8038 285.435 87.859C285.563 87.9316 285.656 88.0335 285.714 88.1647C285.773 88.3063 285.766 88.4358 285.694 88.5532C285.205 89.6032 284.652 90.6825 284.035 91.7912C283.419 92.8999 282.744 94.0155 282.01 95.138C281.28 96.2743 280.555 97.1947 279.835 97.8993C279.119 98.6212 278.509 98.9821 278.006 98.9821C277.879 98.9821 277.756 98.9527 277.639 98.894C276.909 98.6073 276.68 97.4848 276.952 95.5265C277.197 93.7133 277.865 91.1298 278.957 87.7761C278.926 87.7761 278.91 87.783 278.91 87.7969C278.896 87.7969 278.883 87.7969 278.869 87.7969C278.466 88.0697 278.135 88.2787 277.877 88.4237C277.619 88.5653 277.267 88.7311 276.823 88.9211C276.379 89.0938 275.955 89.1715 275.552 89.1542C275.166 89.1404 274.801 89.0109 274.457 88.7657C273.768 88.2925 273.415 87.6173 273.398 86.74C273.384 85.8765 273.708 84.9267 274.369 83.8906C274.786 83.2413 275.288 82.6714 275.877 82.1809C276.463 81.694 276.964 81.5869 277.381 81.8597C277.625 82.0013 277.77 82.2379 277.815 82.5695C277.87 82.8872 277.712 83.5141 277.34 84.4501C276.981 85.3861 276.379 86.6018 275.531 88.0973C276.093 88.1699 277.011 87.7813 278.285 86.9317C278.53 86.7728 278.709 86.6571 278.822 86.5846C278.939 86.5293 279.077 86.4654 279.236 86.3929C279.391 86.3204 279.52 86.291 279.623 86.3048C279.737 86.3186 279.844 86.3618 279.943 86.4343C280.216 86.6519 280.259 87.0336 280.073 87.5793C278.278 93.1952 277.569 96.5989 277.944 97.7905C277.985 97.863 278.013 97.9148 278.027 97.9459C278.171 97.9736 278.394 97.8579 278.693 97.5988C278.983 97.3398 279.349 96.9443 279.794 96.4124C280.238 95.8633 280.718 95.2071 281.235 94.4438C281.752 93.6839 282.318 92.7566 282.935 91.6617C283.551 90.553 284.154 89.3718 284.743 88.1181C284.815 87.9765 284.917 87.8832 285.048 87.8383ZM274.539 86.0043C274.367 86.6364 274.403 87.1475 274.648 87.5378C275.953 85.2341 276.658 83.6713 276.761 82.8493C276.544 82.9805 276.292 83.1895 276.007 83.4761C275.734 83.7662 275.447 84.1479 275.144 84.6211C274.844 85.0839 274.643 85.545 274.539 86.0043Z" fill="white"/>
<path fill-rule="evenodd" clip-rule="evenodd" d="M297.269 87.818C297.414 87.8457 297.522 87.9182 297.595 88.0356C297.681 88.1496 297.701 88.2792 297.657 88.4243C297.629 88.5659 297.558 88.673 297.445 88.7455C294.259 90.8354 291.647 92.9098 289.608 94.9686C288.547 101.359 287.385 106.541 286.121 110.513C284.613 115.208 283.156 117.757 281.751 118.161C281.637 118.189 281.501 118.203 281.343 118.203C280.94 118.203 280.582 118.023 280.268 117.664C279.765 117.014 279.492 115.935 279.447 114.425C279.406 112.926 279.643 111.154 280.16 109.109C280.663 107.068 281.401 105.095 282.376 103.192C284.098 99.9101 286.193 96.9946 288.663 94.4453C288.935 92.7492 289.207 90.9719 289.479 89.1134C288.918 89.9632 288.394 90.6765 287.909 91.2534C287.103 92.231 286.342 92.5039 285.625 92.0721C285.036 91.699 284.721 90.9425 284.68 89.8026C284.649 88.6523 284.914 87.4 285.475 86.0459C285.517 85.9181 285.61 85.8248 285.754 85.7661C285.885 85.7074 286.014 85.7074 286.142 85.7661C286.273 85.8248 286.366 85.9181 286.421 86.0459C286.493 86.1634 286.5 86.2929 286.441 86.4345C285.956 87.761 285.713 88.8405 285.713 89.673C285.727 90.509 285.877 91.0064 286.162 91.1653C286.366 91.2966 286.674 91.1101 287.087 90.6057C287.993 89.5107 288.919 88.1358 289.866 86.4812C290.011 86.2221 290.219 86.1426 290.491 86.2428C290.764 86.343 290.886 86.5295 290.858 86.8024C290.541 89.0616 290.225 91.2068 289.908 93.2379C291.761 91.4969 294.085 89.7127 296.882 87.8854C296.982 87.8128 297.111 87.7904 297.269 87.818ZM285.109 110.234C286.273 106.606 287.349 101.978 288.337 96.3469C286.385 98.5232 284.706 100.971 283.301 103.689C282.526 105.175 281.909 106.686 281.451 108.223C280.99 109.781 280.702 111.135 280.589 112.285C280.489 113.436 280.482 114.429 280.568 115.265C280.654 116.101 280.826 116.669 281.084 116.97C281.215 117.128 281.338 117.187 281.451 117.146C281.551 117.132 281.651 117.089 281.751 117.016C281.868 116.944 282.047 116.755 282.288 116.451C282.546 116.151 282.805 115.769 283.063 115.306C283.307 114.847 283.624 114.178 284.013 113.301C284.385 112.406 284.75 111.384 285.109 110.234Z" fill="white"/>
</g>
<defs>
<clipPath id="clip0_1_2">
<rect width="300" height="160" fill="white"/>
</clipPath>
</defs>
</svg>
