<svg width="150" height="80" viewBox="0 0 150 80" fill="none" xmlns="http://www.w3.org/2000/svg">
<g clip-path="url(#clip0_1_2)">
<path fill-rule="evenodd" clip-rule="evenodd" d="M53.8333 39.3959C53.8333 53.8398 42.2836 65.5742 27.9466 65.8125C27.8277 66.0948 27.7218 66.3746 27.603 66.6543C27.572 66.7528 27.5384 66.8486 27.4945 66.9471V66.9781C27.4945 66.9781 27.4945 66.9885 27.4842 67.0014C27.3412 66.5974 27.1905 66.201 27.0321 65.8125C12.695 65.5638 1.14532 53.8398 1.14532 39.3959C1.14532 25.167 12.3721 13.5621 26.4302 13C15.689 13.5388 7.00155 21.9705 6.06642 32.6272C6.68898 33.6297 7.45362 34.4509 8.33709 35.1632C12.1138 38.1965 17.9597 39.0073 23.072 41.6728L21.1449 47.2343L19.272 52.6741C19.272 52.6741 19.3366 52.6948 19.4657 52.7492C19.9927 52.9772 21.5323 53.7439 23.2011 55.6867H23.2115C24.7175 57.4456 26.3553 60.1784 27.4196 64.323C27.4196 64.323 27.4196 64.3265 27.4196 64.3334C27.442 64.4197 27.4669 64.5026 27.4945 64.582C27.5177 64.4966 27.5384 64.3981 27.5591 64.3126V64.3023C28.6363 60.1681 30.2508 57.4456 31.7698 55.6867C33.8364 53.2803 35.7092 52.6741 35.7092 52.6741L35.6446 52.5006V52.4695L33.8235 47.2343L31.9093 41.6728C37.0215 39.0073 42.8545 38.1965 46.6441 35.1632C47.5276 34.4509 48.2897 33.6297 48.9045 32.6376C47.9668 21.9705 39.2922 13.5388 28.5614 13C42.6065 13.5621 53.8333 25.167 53.8333 39.3959ZM25.6449 62.8983C24.4824 60.8027 23.1469 59.0335 21.7054 57.5C20.6489 56.355 19.5303 55.3525 18.4014 54.4122C18.057 54.1239 17.7083 53.8432 17.3552 53.5704C15.6554 52.2312 13.9324 51.0448 12.3179 49.8351C10.8868 48.7549 9.53055 47.6773 8.33709 46.4779C7.27021 45.3978 6.33507 44.2217 5.60143 42.8825C5.60143 42.8825 6.0535 51.3996 17.1098 56.842C21.6408 59.0775 24.2008 61.1912 25.6449 62.8983ZM49.3875 42.8825H49.3772V42.8929C48.6462 44.2321 47.7084 45.3978 46.6441 46.4779C45.461 47.6773 44.1048 48.7549 42.6608 49.8247C41.0462 51.0344 39.3361 52.2208 37.6338 53.56C37.3186 53.8121 37.0034 54.0643 36.6883 54.3164C35.5155 55.2774 34.3634 56.3239 33.2758 57.5C31.8344 59.0438 30.4885 60.8027 29.326 62.9087C30.7675 61.2042 33.33 59.0879 37.8714 56.842C48.9251 51.3996 49.3875 42.8825 49.3875 42.8825Z" fill="#A1A8B2"/>
<path d="M27.9232 44.3644V41.1674C28.3037 41.1467 28.6697 41.0897 29.0209 40.9964C29.2723 40.9308 29.516 40.8513 29.7519 40.758C32.0766 39.8513 33.7245 37.5843 33.7245 34.9391C33.7245 31.483 30.9246 28.6876 27.4918 28.6876C24.0488 28.6876 21.2515 31.483 21.2515 34.9391C21.2515 37.5843 22.8968 39.8513 25.2214 40.758C25.5779 40.8979 25.9524 41.0068 26.3295 41.0819C26.5671 41.1259 26.8151 41.157 27.0502 41.1674V44.3644V48.8879V52.4529C26.5465 52.5824 26.1694 53.0462 26.1694 53.5954C26.1694 54.1913 26.6214 54.6861 27.1922 54.7638C27.249 54.7708 27.3024 54.7742 27.3524 54.7742C27.3954 54.7742 27.4419 54.7708 27.4918 54.7638C27.5349 54.7708 27.5779 54.7742 27.621 54.7742C27.6752 54.7742 27.7295 54.7638 27.7837 54.7638C28.3545 54.6758 28.7936 54.1913 28.7936 53.5954C28.7936 53.0462 28.4294 52.5824 27.9232 52.4529V49.2662V44.3644Z" fill="#A1A8B2"/>
<path d="M79.2161 18.8311V19.0358H79.0327C78.4102 19.0358 77.5475 19.4011 77.2375 20.3104L73.8358 31.1943C73.8358 31.1943 73.4277 32.5001 73.3941 33.4716H73.2004L69.0031 21.712L65.8933 31.1814C65.8933 31.1814 65.5058 32.4664 65.4723 33.4716H65.2785L60.6189 20.2871C60.2857 19.3907 59.4566 19.0358 58.8212 19.0358H58.6611V18.8311H63.2122V19.0358H63.0417C62.5148 19.0358 61.9982 19.4891 62.2333 20.2975L65.3328 30.3083L69.153 18.5072H69.3467L73.3941 29.886L76.1398 20.256C76.3439 19.4658 75.9022 19.0358 75.3417 19.0358H75.1583V18.8311H79.2161Z" fill="white"/>
<path d="M84.6543 20.88C87.2376 20.88 88.8185 22.1338 88.8185 24.2164C88.8185 25.9546 87.4726 27.4129 85.6334 27.6072C86.0751 27.8015 86.7726 28.589 87.2143 29.2158C87.204 29.2158 88.1624 30.5007 89.0019 31.4617C89.8415 32.3994 90.4124 33.0056 91.5516 33.0159V33.2206H90.9058C88.6351 33.2206 87.7413 32.1948 87.0955 31.4177C86.8707 31.1379 85.2459 28.7936 85.0831 28.5993C84.5355 27.8973 83.8251 27.2083 83.0062 27.2083V27.0244C83.0062 27.0244 83.5125 27.0348 84.1893 27.014C85.3208 26.9804 86.6124 26.97 87.204 25.2422C87.3021 24.9521 87.3538 24.5195 87.3435 24.0766C87.3021 22.5327 86.2689 21.6261 84.6207 21.5406C83.4686 21.4862 82.4586 21.5406 82.2648 21.5302V31.9046C82.2751 32.5186 82.7685 33.0159 83.4273 33.0159H83.7063V33.2206H79.5085L79.5188 33.0159H79.7875C80.4436 33.0159 80.9293 32.5419 80.9603 31.9357V22.1545C80.9396 21.5509 80.4436 21.0873 79.7875 21.0873H79.5188L79.5085 20.88H84.6543Z" fill="white"/>
<path d="M92.3693 33.2206V33.0159H92.6379C93.4026 33.0159 94.0174 32.5186 94.038 31.9046V22.1985C94.0174 21.582 93.4026 21.0873 92.6379 21.0873H92.3693V20.88H97.0088V21.0873H96.7298C95.9858 21.0873 95.3839 21.5613 95.34 22.1649V31.9254C95.3736 32.5289 95.9858 33.0159 96.7401 33.0159H97.0088V33.2206H92.3693Z" fill="white"/>
<path d="M107.395 20.8593C108.211 20.8593 109.332 20.6754 109.686 20.5355V22.8566H109.472V22.5328C109.461 21.9603 109.063 21.4862 108.438 21.4759H104.724V31.9257C104.757 32.5423 105.284 33.0163 105.93 33.0163H106.168L106.178 33.221H101.947V33.0163H102.185C102.841 33.0163 103.381 32.519 103.391 31.905V21.4759H99.6766C99.0541 21.4862 98.6537 21.9603 98.6537 22.5328V22.8566H98.429V20.5355C98.7958 20.6754 99.9143 20.8593 100.72 20.8593H107.395Z" fill="white"/>
<path d="M111.106 33.2206V33.0159H111.375C112.14 33.0159 112.765 32.5186 112.775 31.9046V22.1985C112.765 21.582 112.14 21.0873 111.375 21.0873H111.106V20.88H115.746V21.0873H115.477C114.723 21.0873 114.121 21.5613 114.077 22.1649V31.9254C114.111 32.5289 114.723 33.0159 115.477 33.0159H115.746V33.2206H111.106Z" fill="white"/>
<path d="M132.128 20.88L132.118 21.0873H131.782C131.17 21.0873 130.674 21.5406 130.643 22.1234V30.8892C130.643 32.2155 130.837 33.5133 130.837 33.5133H130.643L119.977 23.3642V31.9461C119.987 32.5419 120.493 33.0159 121.116 33.0159H121.462V33.2206H117.587V33.0159H117.931C118.556 33.0159 119.06 32.5419 119.073 31.9461V23.1492C119.073 21.7452 118.879 20.5796 118.879 20.5796L119.093 20.5899L129.739 30.6509V22.1131C129.695 21.5406 129.199 21.0873 128.597 21.0873H128.253V20.88H132.128Z" fill="white"/>
<path d="M146.324 30.8685C145.376 32.0756 143.374 33.5133 140.489 33.5133C136.43 33.49 133.762 31.0395 133.762 27.0555C133.762 23.0508 136.443 20.5899 140.478 20.5899C142.372 20.5899 143.88 20.9888 145.268 21.8411L145.72 24.7449H145.536C144.945 22.3384 143.33 21.2168 140.458 21.2168C137.324 21.2168 135.237 23.429 135.237 27.0555C135.237 30.6613 137.335 32.8968 140.489 32.8968C142.188 32.8968 143.707 32.3683 144.989 31.1146L145.03 28.3843C145.03 27.8663 144.676 27.5735 144.074 27.5735H143.782V27.3689H147.538V27.5735H147.259C146.657 27.5735 146.322 27.8663 146.322 28.3843L146.324 30.8685Z" fill="white"/>
<path d="M65.3228 62.8137H63.4706V62.7696H63.5249C63.6773 62.7696 63.8065 62.6505 63.8168 62.4899V59.972C63.7936 59.8321 63.6773 59.713 63.5249 59.713H63.4706V59.6715H64.7752C64.9689 59.6715 65.2273 59.6275 65.3125 59.5835V59.7259V59.8011V60.1559H65.2686V60.0705C65.2686 59.9306 65.1498 59.8218 65.0103 59.8114H64.1061V61.1921H64.8604C64.9793 61.1921 65.0748 61.0962 65.0748 60.9771V60.9123H65.1188V61.6247H65.0748V61.5496C65.0748 61.4304 64.9793 61.3346 64.8604 61.3346H64.1061V62.6841H64.7416C65.2143 62.6841 65.3977 62.4355 65.5372 62.0884H65.5812L65.3228 62.8137Z" fill="white"/>
<path d="M69.3163 62.521C69.337 62.6842 69.4791 62.7696 69.6186 62.7696H69.6831V62.8137H68.7558V62.78H68.8203C68.9082 62.78 68.9934 62.6945 68.9831 62.5961L68.7454 60.7518L67.9059 62.4251C67.9059 62.4251 67.7767 62.6945 67.7457 62.8784H67.7018L66.6246 60.7932L66.4205 62.5961C66.4102 62.6945 66.4954 62.78 66.5832 62.78H66.6478V62.8137H65.8186V62.7696H65.8832C66.033 62.7696 66.1725 62.6842 66.1958 62.521L66.5393 60.0601H66.5832L67.7664 62.3371L68.9185 60.0601H68.9495L69.3163 62.521Z" fill="white"/>
<path d="M71.0157 60.1248C71.6408 60.1248 72.0387 60.415 72.0387 60.8916C72.0387 61.5703 71.3619 61.8837 70.747 61.5806V61.5392C70.747 61.5392 71.4574 61.7335 71.6848 61.0859C71.7054 61.0211 71.7158 60.9227 71.7158 60.8476C71.7158 60.4797 71.4471 60.2544 71.0054 60.2544H70.574V62.5313C70.574 62.6608 70.6928 62.7696 70.8323 62.7696H70.8969V62.8137H69.9617L69.9721 62.7696H70.0263C70.1761 62.7696 70.2846 62.6608 70.2846 62.5313V60.4046C70.2846 60.2647 70.1761 60.1689 70.0263 60.1689H69.9721L69.9617 60.1248H71.0157Z" fill="white"/>
<path fill-rule="evenodd" clip-rule="evenodd" d="M73.9604 62.8784C73.1234 62.8784 72.4466 62.2464 72.4466 61.4693C72.4466 60.6896 73.1234 60.0601 73.9604 60.0601C74.7974 60.0601 75.4716 60.6896 75.4716 61.4693C75.4716 62.2464 74.7974 62.8784 73.9604 62.8784ZM75.1383 61.4693C75.1383 60.7621 74.6114 60.1896 73.9604 60.1896C73.3094 60.1896 72.7824 60.7621 72.7824 61.4693C72.7824 62.1765 73.3094 62.7489 73.9604 62.7489C74.6114 62.7489 75.1383 62.1765 75.1383 61.4693Z" fill="white"/>
<path d="M79.7026 60.1249V60.1689H79.669C79.4882 60.1689 79.3591 60.2751 79.3048 60.4383L78.6487 62.3707C78.6487 62.3707 78.5608 62.6608 78.5505 62.8655H78.5066L77.667 60.7284L77.0858 62.3707C77.0858 62.3707 77.0005 62.6505 76.9902 62.8655H76.9463L76.0112 60.415C75.9466 60.2647 75.8277 60.1689 75.6547 60.1689H75.6133V60.1249H76.5381V60.1689H76.5046C76.409 60.1689 76.3005 60.2337 76.3444 60.4046L76.9463 62.2412L77.7006 60.0497H77.7445L78.5505 62.1013L79.0568 60.4383C79.1111 60.244 79.0129 60.1689 78.9173 60.1689H78.8837V60.1249H79.7026Z" fill="white"/>
<path d="M81.7481 62.8137H79.9269V62.7696H79.9915C80.131 62.7696 80.2395 62.6608 80.2498 62.5313V60.4046C80.2498 60.2647 80.131 60.1689 79.9915 60.1689H79.9269V60.1249H81.2418C81.4123 60.1249 81.6603 60.0808 81.7352 60.0497V60.5575H81.6939V60.4927C81.6939 60.3632 81.5957 60.2647 81.4666 60.2544H80.5314V61.3993H81.3064C81.4252 61.3993 81.4769 61.3113 81.4769 61.2154V61.1507H81.5311V61.7879H81.4769V61.7231C81.4769 61.6247 81.4252 61.5392 81.3167 61.5392H80.5314V62.6841H81.2418C81.6706 62.6712 81.823 62.4666 81.9522 62.1764H81.9935L81.7481 62.8137Z" fill="white"/>
<path d="M83.458 60.1248C84.0186 60.1248 84.3622 60.3942 84.3622 60.8476C84.3622 61.2258 84.0703 61.5496 83.6725 61.5936C83.7706 61.635 83.9204 61.8086 84.0186 61.9381C84.0186 61.9381 84.2227 62.2179 84.4061 62.4355C84.5895 62.6401 84.7187 62.7696 84.9641 62.7696V62.8137H84.8246C84.3312 62.8137 84.1245 62.5961 83.985 62.4251C83.9437 62.3603 83.5872 61.8526 83.5562 61.8086C83.427 61.6583 83.2746 61.5055 83.0912 61.5055V61.4641C83.0912 61.4641 83.2101 61.4641 83.3495 61.4641C83.5975 61.4511 83.8791 61.4511 84.0083 61.0755C84.0289 61.0108 84.0496 60.9123 84.0393 60.8165C84.0289 60.4797 83.8016 60.2855 83.4477 60.2647C83.1997 60.2544 82.975 60.2647 82.9311 60.2647V62.5313C82.9311 62.6608 83.0396 62.7696 83.1894 62.7696H83.2436V62.8137H82.3292V62.7696H82.3937C82.5332 62.7696 82.6392 62.6712 82.6521 62.5313V60.3942C82.6392 60.2647 82.5332 60.1689 82.3937 60.1689H82.3292V60.1248H83.458Z" fill="white"/>
<path d="M85.1369 62.8137L85.1472 62.7696H85.2015C85.3746 62.7696 85.5037 62.6608 85.5037 62.5313V60.4046C85.5037 60.2751 85.3746 60.1689 85.2015 60.1689H85.1472L85.1369 60.1248H86.1599V60.1689H86.0953C85.9325 60.1689 85.8034 60.2647 85.793 60.4046V62.5313C85.793 62.6608 85.9325 62.7696 86.0953 62.7696H86.1599V62.8137H85.1369Z" fill="white"/>
<path d="M89.7323 60.1249V60.1689H89.6574C89.5282 60.1689 89.4197 60.2647 89.4094 60.3943V62.306C89.4094 62.5961 89.4533 62.8784 89.4533 62.8784H89.4094L87.0845 60.6637V62.5417C87.0845 62.6712 87.193 62.7696 87.3325 62.7696H87.4074V62.8137H86.5575V62.7696H86.6324C86.7719 62.7696 86.8804 62.6712 86.8804 62.5417V60.6093C86.8804 60.3088 86.8365 60.0497 86.8365 60.0497L86.8907 60.0601L89.2157 62.2516V60.3943C89.2053 60.2647 89.0968 60.1689 88.9677 60.1689H88.8928V60.1249H89.7323Z" fill="white"/>
<path d="M92.8422 62.306C92.6382 62.565 92.1964 62.8784 91.5635 62.8784C90.68 62.8784 90.0988 62.3371 90.0988 61.4745C90.0988 60.5886 90.68 60.0601 91.5635 60.0601C91.982 60.0601 92.3049 60.1456 92.6175 60.3295L92.7131 60.9667H92.6717C92.5426 60.4383 92.1861 60.1896 91.5635 60.1896C90.8738 60.1896 90.4217 60.674 90.4217 61.4745C90.4217 62.2619 90.8841 62.7489 91.5635 62.7489C91.9381 62.7489 92.2739 62.6298 92.5529 62.3604L92.5632 61.7542C92.5632 61.6454 92.478 61.5807 92.3488 61.5807H92.2842V61.5392H93.1135V61.5807H93.0489C92.9197 61.5807 92.8422 61.6454 92.8422 61.7646V62.306Z" fill="white"/>
<path d="M97.3315 59.6715V59.713H97.2669C97.0835 59.713 96.9105 59.8425 96.8149 59.972L95.9314 61.4097V62.4899C95.9314 62.6505 96.0606 62.7696 96.2233 62.7696H96.2776V62.8137H95.2959V62.7696H95.3502C95.5129 62.7696 95.6421 62.6505 95.6421 62.4899V61.4097L94.7922 59.972C94.7044 59.8425 94.5209 59.713 94.3401 59.713H94.2729V59.6715H95.3837V59.713H95.3192C95.19 59.713 95.1022 59.8658 95.1668 59.9953L95.8358 61.2568L96.5565 59.9953C96.6211 59.8658 96.5126 59.713 96.3938 59.713H96.3421V59.6715H97.3315Z" fill="white"/>
<path fill-rule="evenodd" clip-rule="evenodd" d="M98.659 62.8784C97.8246 62.8784 97.1478 62.2464 97.1478 61.4693C97.1478 60.6896 97.8246 60.0601 98.659 60.0601C99.496 60.0601 100.173 60.6896 100.173 61.4693C100.173 62.2464 99.496 62.8784 98.659 62.8784ZM99.8396 61.4693C99.8396 60.7621 99.3126 60.1896 98.659 60.1896C98.008 60.1896 97.4811 60.7621 97.4811 61.4693C97.4811 62.1765 98.008 62.7489 98.659 62.7489C99.3126 62.7489 99.8396 62.1765 99.8396 61.4693Z" fill="white"/>
<path d="M103.337 60.1248V60.1689H103.272C103.154 60.1689 103.058 60.244 103.058 60.3502V61.863C103.058 62.5002 102.627 62.8784 101.937 62.8784C101.237 62.8784 100.818 62.5002 100.818 61.8733V60.3632C100.808 60.244 100.72 60.1689 100.604 60.1689H100.526V60.1248H101.379V60.1689H101.314C101.195 60.1689 101.097 60.244 101.097 60.3632V61.819C101.097 62.4018 101.42 62.7593 101.926 62.7593C102.497 62.7593 102.841 62.4251 102.841 61.863V60.3632C102.841 60.244 102.745 60.1689 102.627 60.1689H102.562V60.1248H103.337Z" fill="white"/>
<path d="M104.866 60.1248C105.424 60.1248 105.768 60.3942 105.768 60.8476C105.768 61.2258 105.478 61.5496 105.08 61.5936C105.176 61.635 105.328 61.8086 105.424 61.9381C105.424 61.9381 105.628 62.2179 105.811 62.4355C105.995 62.6401 106.124 62.7696 106.372 62.7696V62.8137H106.233C105.737 62.8137 105.532 62.5961 105.393 62.4251C105.349 62.3603 104.995 61.8526 104.962 61.8086C104.832 61.6583 104.683 61.5055 104.499 61.5055V61.4641C104.499 61.4641 104.618 61.4641 104.757 61.4641C105.005 61.4511 105.284 61.4511 105.414 61.0755C105.434 61.0108 105.458 60.9123 105.447 60.8165C105.434 60.4797 105.21 60.2855 104.853 60.2647C104.608 60.2544 104.38 60.2647 104.336 60.2647V62.5313C104.336 62.6608 104.445 62.7696 104.595 62.7696H104.649V62.8137H103.734V62.7696H103.799C103.939 62.7696 104.047 62.6712 104.057 62.5313V60.3942C104.047 60.2647 103.939 60.1689 103.799 60.1689H103.734V60.1248H104.866Z" fill="white"/>
<path d="M108.857 59.6715C109.438 59.6715 109.784 60.0057 109.784 60.5341C109.784 61.2258 109.04 61.5936 108.48 61.2905V61.2465C108.48 61.2465 109.224 61.4097 109.417 60.7621C109.438 60.6973 109.448 60.5885 109.448 60.4927C109.438 60.0808 109.224 59.8011 108.846 59.8011H108.33V62.4899C108.33 62.6505 108.459 62.7696 108.622 62.7696H108.676V62.8137H107.694V62.7696H107.748C107.911 62.7696 108.03 62.6505 108.04 62.4899V59.972C108.017 59.8321 107.901 59.713 107.748 59.713H107.694V59.6715H108.857Z" fill="white"/>
<path fill-rule="evenodd" clip-rule="evenodd" d="M112.215 62.5106C112.313 62.6945 112.452 62.7696 112.571 62.7696H112.602V62.8137H111.677V62.7696H111.721C111.817 62.7696 111.936 62.6712 111.871 62.5003L111.623 61.9045H110.494L110.246 62.4899C110.182 62.6712 110.301 62.7696 110.407 62.7696H110.44V62.8137H109.59V62.7696H109.621C109.74 62.7696 109.88 62.6945 109.967 62.5106L110.902 60.5238C110.902 60.5238 111.065 60.1793 111.076 60.0601H111.117L112.215 62.5106ZM111.569 61.7646L111.065 60.5342L110.549 61.7646H111.569Z" fill="white"/>
<path d="M114.294 60.1145C114.464 60.1145 114.712 60.0808 114.787 60.0497V60.5575H114.743V60.4797C114.743 60.3502 114.658 60.2544 114.519 60.2544H113.71V62.5313C113.71 62.6608 113.829 62.7696 113.971 62.7696H114.023V62.8137H113.098V62.7696H113.152C113.302 62.7696 113.411 62.6608 113.421 62.5313V60.2544H112.602C112.473 60.2544 112.377 60.3502 112.377 60.4797V60.5575H112.333V60.0497C112.408 60.0808 112.656 60.1145 112.829 60.1145H114.294Z" fill="white"/>
<path d="M117.048 62.8137V62.7696H117.102C117.241 62.7696 117.35 62.6608 117.36 62.5313V61.5496H115.702V62.5313C115.715 62.6608 115.82 62.7696 115.96 62.7696H116.014V62.8137H115.1L115.11 62.7696H115.154C115.304 62.7696 115.412 62.6608 115.423 62.5313V60.4046C115.412 60.2751 115.304 60.1689 115.154 60.1689H115.1V60.1248H116.014V60.1689H115.96C115.82 60.1689 115.715 60.2647 115.702 60.4046V61.42H117.36V60.4046C117.36 60.2751 117.241 60.1689 117.102 60.1689H117.048V60.1248H117.962V60.1689H117.91C117.768 60.1689 117.652 60.2647 117.639 60.4046V62.5313C117.652 62.6608 117.768 62.7696 117.91 62.7696H117.962V62.8137H117.048Z" fill="white"/>
<path d="M121.353 60.1145C121.524 60.1145 121.772 60.0808 121.847 60.0497V60.5575H121.805V60.4797C121.805 60.3502 121.718 60.2544 121.578 60.2544H120.772V62.5313C120.772 62.6608 120.891 62.7696 121.03 62.7696H121.085V62.8137H120.157V62.7696H120.212C120.351 62.7696 120.47 62.6608 120.47 62.5313V60.2544H119.664C119.524 60.2544 119.437 60.3502 119.437 60.4797V60.5575H119.395V60.0497C119.47 60.0808 119.718 60.1145 119.889 60.1145H121.353Z" fill="white"/>
<path fill-rule="evenodd" clip-rule="evenodd" d="M123.52 62.8784C122.686 62.8784 122.009 62.2464 122.009 61.4693C122.009 60.6896 122.686 60.0601 123.52 60.0601C124.357 60.0601 125.034 60.6896 125.034 61.4693C125.034 62.2464 124.357 62.8784 123.52 62.8784ZM124.701 61.4693C124.701 60.7621 124.171 60.1896 123.515 60.1896C122.862 60.1896 122.332 60.7621 122.332 61.4693C122.332 62.1765 122.862 62.7489 123.515 62.7489C124.171 62.7489 124.701 62.1765 124.701 61.4693Z" fill="white"/>
<path d="M128.025 61.4952C128.198 61.6584 128.242 61.863 128.242 62.0365C128.242 62.5313 127.919 62.8784 127.413 62.8784C127.186 62.8784 126.821 62.8137 126.648 62.6401C126.615 62.5002 126.628 62.2075 126.703 62.0132H126.734C126.692 62.4666 126.982 62.7696 127.39 62.7489C127.713 62.7256 127.984 62.5002 127.984 62.1428C127.984 61.9692 127.919 61.8293 127.811 61.7231L126.951 60.9227C126.767 60.7621 126.713 60.5445 126.713 60.3735C126.713 59.985 126.982 59.6068 127.498 59.6068C127.617 59.6068 127.757 59.6275 127.886 59.6482H128.059V59.7026V60.2103H128.015C128.015 59.9202 127.788 59.7467 127.509 59.7467C127.175 59.7467 126.961 59.985 126.961 60.2647C126.961 60.3735 127.002 60.5445 127.142 60.674L128.025 61.4952Z" fill="white"/>
<path d="M131.481 60.1248V60.1689H131.417C131.298 60.1689 131.213 60.244 131.2 60.3502V61.863C131.2 62.5002 130.781 62.8784 130.081 62.8784C129.392 62.8784 128.963 62.5002 128.963 61.8733V60.3632C128.963 60.244 128.865 60.1689 128.746 60.1689H128.681V60.1248H129.534V60.1689H129.469C129.35 60.1689 129.252 60.244 129.252 60.3632V61.819C129.252 62.4018 129.565 62.7593 130.081 62.7593C130.642 62.7593 130.996 62.4251 130.996 61.863V60.3632C130.985 60.244 130.9 60.1689 130.781 60.1689H130.717V60.1248H131.481Z" fill="white"/>
<path d="M134.571 61.6895L134.516 62.306C134.289 62.6609 133.816 62.8784 133.289 62.8784C132.372 62.8784 131.804 62.3371 131.804 61.4641C131.804 60.5886 132.372 60.0601 133.289 60.0601C133.654 60.0601 134.051 60.156 134.333 60.3295L134.429 60.9667H134.398C134.258 60.415 133.837 60.1896 133.276 60.1896C132.569 60.1896 132.127 60.674 132.127 61.4745C132.127 62.2516 132.579 62.736 133.289 62.736C133.956 62.7489 134.483 62.4251 134.527 61.6895H134.571Z" fill="white"/>
<path d="M137.82 61.6895L137.766 62.306C137.541 62.6609 137.066 62.8784 136.539 62.8784C135.624 62.8784 135.053 62.3371 135.053 61.4641C135.053 60.5886 135.624 60.0601 136.539 60.0601C136.906 60.0601 137.314 60.156 137.582 60.3295L137.681 60.9667H137.647C137.507 60.415 137.089 60.1896 136.528 60.1896C135.828 60.1896 135.376 60.674 135.376 61.4745C135.376 62.2516 135.828 62.736 136.539 62.736C137.205 62.7489 137.732 62.4251 137.776 61.6895H137.82Z" fill="white"/>
<path d="M140.059 62.8137H138.238V62.7696H138.303C138.442 62.7696 138.561 62.6608 138.561 62.5313V60.4046C138.561 60.2647 138.455 60.1689 138.303 60.1689H138.238V60.1249H139.553C139.734 60.1249 139.972 60.0808 140.047 60.0497V60.5575H140.005V60.4927C140.005 60.3632 139.917 60.2647 139.778 60.2544H138.853V61.3993H139.618C139.734 61.3993 139.799 61.3113 139.799 61.2154V61.1507H139.842V61.7879H139.799V61.7231C139.799 61.6247 139.747 61.5392 139.628 61.5392H138.853V62.6841H139.553C139.982 62.6712 140.134 62.4666 140.264 62.1764H140.305L140.059 62.8137Z" fill="white"/>
<path d="M142.072 61.6791C142.211 61.7879 142.265 61.9822 142.276 62.1531C142.276 62.5546 141.919 62.8784 141.48 62.8784C141.209 62.8784 140.865 62.8137 140.705 62.6712C140.671 62.5546 140.682 62.2827 140.746 62.1117H140.801C140.757 62.5106 141.038 62.7593 141.426 62.7489C141.803 62.736 142.028 62.5417 142.028 62.2516C142.028 62.1117 141.974 61.9925 141.867 61.8941L140.963 61.2051C140.801 61.0522 140.757 60.8683 140.746 60.7181C140.746 60.3502 141.08 60.0601 141.49 60.0601C141.694 60.0601 141.834 60.0705 141.932 60.1016H142.082L142.092 60.5886H142.038C142.038 60.3399 141.878 60.1896 141.521 60.1896C141.222 60.1896 140.984 60.3839 140.984 60.6222C140.984 60.7388 141.015 60.858 141.154 60.9771L142.072 61.6791Z" fill="white"/>
<path d="M144.138 61.6791C144.277 61.7879 144.342 61.9822 144.342 62.1531C144.342 62.5546 143.986 62.8784 143.546 62.8784C143.288 62.8784 142.942 62.8137 142.782 62.6712C142.748 62.5546 142.759 62.2827 142.823 62.1117H142.867C142.836 62.5106 143.105 62.7593 143.503 62.7489C143.869 62.736 144.094 62.5417 144.094 62.2516C144.094 62.1117 144.05 61.9925 143.934 61.8941L143.04 61.2051C142.867 61.0522 142.823 60.8683 142.823 60.7181C142.813 60.3502 143.146 60.0601 143.567 60.0601C143.771 60.0601 143.911 60.0705 144.009 60.1016H144.159V60.5886H144.115C144.115 60.3399 143.944 60.1896 143.598 60.1896C143.298 60.1896 143.05 60.3839 143.061 60.6222C143.061 60.7388 143.094 60.858 143.234 60.9771L144.138 61.6791Z" fill="white"/>
<path fill-rule="evenodd" clip-rule="evenodd" d="M70.4356 42.8725C70.501 42.8932 70.5475 42.9364 70.5751 43.002C70.6044 43.0659 70.6044 43.1307 70.5751 43.1963C70.5475 43.2689 70.501 43.3189 70.4356 43.3466C69.4092 43.7714 68.4405 44.2143 67.5294 44.6754C66.8561 47.5974 66.0165 50.0332 65.0108 51.9829C64.2857 53.4231 63.5039 54.5499 62.6652 55.3633C61.8265 56.1767 61.0084 56.6084 60.2111 56.6585C60.168 56.6654 60.125 56.6688 60.0819 56.6688C59.6083 56.6688 59.2062 56.5246 58.8755 56.2362C58.5466 55.9565 58.3244 55.561 58.2091 55.0499C58.1006 54.5681 58.1006 54.0215 58.2091 53.4102C58.3158 52.804 58.5742 52.1236 58.984 51.3689C59.4008 50.6126 59.9424 49.8536 60.6089 49.092C61.284 48.3287 62.1778 47.5291 63.2903 46.6933C64.4028 45.8523 65.6686 45.0605 67.0877 44.318C67.6336 41.8934 68.0573 39.2089 68.3587 36.2645C68.3879 35.9985 68.406 35.7723 68.4129 35.5858C68.3199 35.7948 68.1623 36.1548 67.9402 36.666C67.6887 37.2549 67.4838 37.7263 67.3254 38.0803C67.1669 38.4326 66.9267 38.936 66.6046 39.5905C66.2809 40.245 65.9864 40.7994 65.7212 41.2535C65.4491 41.706 65.1261 42.1878 64.7524 42.699C64.3873 43.2101 64.0291 43.6384 63.6778 43.9838C62.4998 45.0856 61.5664 45.5251 60.8776 45.3023C60.3971 45.1572 60.0888 44.7393 59.9528 44.0486C59.8305 43.401 59.8666 42.6023 60.0613 41.6525C60.261 40.7096 60.6089 39.7632 61.1049 38.8134C61.5991 37.8705 62.1804 37.1184 62.8486 36.5572C62.9054 36.514 62.97 36.4959 63.0423 36.5028C63.1129 36.5028 63.1698 36.5313 63.2128 36.5883C63.2559 36.6401 63.2774 36.7014 63.2774 36.7722C63.2705 36.8447 63.2421 36.906 63.1921 36.9561C62.5825 37.4673 62.0443 38.1658 61.5776 39.0517C61.1109 39.9428 60.7811 40.8313 60.5882 41.7172C60.3936 42.6031 60.354 43.3483 60.4694 43.9527C60.5693 44.4345 60.7596 44.7186 61.0403 44.8049C61.5346 44.9638 62.2915 44.564 63.311 43.6056C63.5986 43.3327 63.8853 43.0124 64.1712 42.6446C64.4657 42.2785 64.7455 41.8683 65.0108 41.4141C65.276 40.9617 65.5128 40.5481 65.7212 40.1734C65.9364 39.7917 66.1663 39.3384 66.4109 38.8134C66.6554 38.2884 66.838 37.8852 66.9585 37.6037C67.0877 37.324 67.2565 36.9423 67.4649 36.4588C67.8454 35.5815 68.1003 35.0349 68.2295 34.8191C68.3587 34.5963 68.5093 34.5065 68.6816 34.5497C68.8245 34.5859 68.9106 34.7189 68.9399 34.9486C68.9692 35.1714 68.9476 35.6281 68.8753 36.3189C68.5963 39.1113 68.1985 41.681 67.6818 44.0278C68.4913 43.6168 69.3446 43.2317 70.2418 42.8725C70.3004 42.8432 70.365 42.8432 70.4356 42.8725ZM64.5587 51.7471C65.4852 49.9252 66.2748 47.6759 66.9275 44.9992C64.2358 46.4533 62.158 48.055 60.6941 49.8044C59.9209 50.7248 59.3577 51.6418 59.0047 52.5553C58.6534 53.462 58.5604 54.2572 58.7257 54.9411C58.8118 55.3452 58.984 55.6517 59.2424 55.8606C59.4938 56.0765 59.8021 56.1698 60.1672 56.1404C60.8629 56.0972 61.5983 55.6871 62.3733 54.91C63.1482 54.1398 63.8767 53.0855 64.5587 51.7471Z" fill="white"/>
<path fill-rule="evenodd" clip-rule="evenodd" d="M74.9991 43.9943C75.0714 43.9874 75.136 44.0055 75.1928 44.0487C75.2497 44.0919 75.2858 44.1497 75.3013 44.2223C75.3082 44.2948 75.2901 44.3595 75.2471 44.4165C74.8734 44.8983 74.4282 45.2722 73.9115 45.5382C73.4018 45.8127 72.9213 45.8991 72.4701 45.7972C72.3409 46.108 72.1653 46.3498 71.9431 46.5225C71.7123 46.7021 71.479 46.7919 71.243 46.7919H71.2198C70.977 46.785 70.766 46.7021 70.5869 46.5432C70.3992 46.3843 70.27 46.165 70.1994 45.8853C70.0771 45.438 70.0944 45.0132 70.2511 44.6108C70.4095 44.2084 70.6394 43.9131 70.9408 43.7249C71.0062 43.6817 71.0786 43.6714 71.1578 43.6938C71.2353 43.4987 71.3498 43.3476 71.5014 43.2405C71.6512 43.1317 71.8053 43.0885 71.9638 43.111C72.0568 43.1317 72.1429 43.1706 72.2221 43.2276C72.2944 43.2863 72.3702 43.3804 72.4494 43.5099C72.5269 43.6325 72.5837 43.8268 72.6199 44.0927C72.6561 44.3518 72.6638 44.6643 72.6432 45.0304C72.6345 45.1168 72.6234 45.2075 72.6096 45.3024C72.9471 45.3732 73.3277 45.2869 73.7514 45.0434C74.1664 44.7982 74.5246 44.4813 74.826 44.0927C74.8691 44.0358 74.9268 44.0029 74.9991 43.9943ZM71.243 46.2635C71.3653 46.2635 71.4979 46.2056 71.6409 46.0899C71.7769 45.9673 71.8914 45.8093 71.9844 45.6159C71.3972 45.2843 71.0889 44.8379 71.0596 44.2766C70.8805 44.4493 70.7582 44.6833 70.6928 44.9786C70.6222 45.2653 70.6222 45.5166 70.6928 45.7324C70.7944 46.0865 70.9778 46.2635 71.243 46.2635ZM72.1136 44.9994C72.136 44.7835 72.1403 44.5961 72.1265 44.4373C72.111 44.2801 72.0929 44.1506 72.0723 44.0487C72.0568 43.9485 72.0352 43.8656 72.0077 43.8C71.9784 43.743 71.9526 43.6999 71.9302 43.6705C71.9095 43.6429 71.8957 43.6291 71.8888 43.6291H71.8785C71.8424 43.6291 71.795 43.6576 71.7364 43.7145C71.6865 43.7715 71.6477 43.851 71.6202 43.9529C71.5616 44.1463 71.5685 44.3405 71.6409 44.5357C71.7132 44.736 71.8708 44.9191 72.1136 45.0849C72.1136 45.0572 72.1136 45.0287 72.1136 44.9994Z" fill="white"/>
<path d="M79.8112 44.0384C79.8887 44.0315 79.9567 44.0462 80.0153 44.0824C80.0721 44.1187 80.1074 44.1722 80.1212 44.243C80.1436 44.3156 80.1367 44.3769 80.1006 44.4269C79.9921 44.5996 79.8732 44.7835 79.7441 44.9787C79.6235 45.1721 79.4375 45.438 79.1861 45.7765C78.9346 46.1081 78.6978 46.3999 78.4757 46.6521C78.2535 46.8956 78.009 47.1149 77.742 47.31C77.4837 47.4965 77.2581 47.5898 77.0652 47.5898C76.9929 47.5898 76.9318 47.576 76.8818 47.5483C76.4444 47.3895 76.3221 46.6978 76.515 45.4735C76.2136 45.8845 75.9415 46.1944 75.6987 46.4034C75.3474 46.6987 75.0425 46.7341 74.7842 46.5096C74.5397 46.3093 74.4277 45.957 74.4484 45.4527C74.4708 44.9416 74.618 44.452 74.8901 43.984C74.9263 43.9201 74.9806 43.8769 75.0529 43.8545C75.1235 43.8407 75.1915 43.8519 75.257 43.8881C75.3207 43.9244 75.3603 43.9745 75.3758 44.0384C75.3965 44.1109 75.3887 44.1791 75.3525 44.243C75.1958 44.4952 75.0882 44.762 75.0296 45.0435C74.9728 45.3232 74.9556 45.5572 74.978 45.7454C74.9986 45.925 75.0417 46.0433 75.1071 46.1003C75.1502 46.1435 75.2363 46.1115 75.3655 46.0045C75.6014 45.8024 75.895 45.4458 76.2463 44.9347C76.3049 44.8483 76.3514 44.787 76.3858 44.7507C76.4151 44.7076 76.4513 44.6575 76.4943 44.6005C76.5443 44.5418 76.5839 44.5021 76.6132 44.4813C76.6338 44.4675 76.6622 44.4494 76.6984 44.4269C76.7346 44.3976 76.7707 44.3872 76.8069 44.3959C76.8431 44.4028 76.8861 44.4131 76.9361 44.4269C77.0515 44.477 77.1126 44.5815 77.1195 44.7404C77.1333 44.8993 77.1117 45.1039 77.0549 45.3543C76.9533 45.8516 76.9137 46.2298 76.9361 46.4889C76.9567 46.7548 76.9783 46.9172 77.0007 46.9759C77.0213 47.0329 77.0428 47.0613 77.0652 47.0613C77.0945 47.0821 77.141 47.0752 77.2047 47.0406C77.2771 47.0113 77.3597 46.9603 77.4527 46.8878C77.5457 46.817 77.6533 46.7237 77.7756 46.608C77.891 46.4923 78.0236 46.3559 78.1734 46.1988C78.3181 46.033 78.4688 45.8525 78.6255 45.6574C78.7771 45.464 78.9424 45.2377 79.1215 44.9787C79.3006 44.7197 79.4763 44.4459 79.6485 44.1575C79.6847 44.0919 79.738 44.0522 79.8086 44.0384H79.8112Z" fill="white"/>
<path fill-rule="evenodd" clip-rule="evenodd" d="M85.1271 43.9192C85.1908 43.8984 85.2554 43.9019 85.3208 43.9295C85.3845 43.9658 85.431 44.0167 85.4603 44.0824C85.4827 44.1532 85.4758 44.2179 85.4396 44.2766C85.1951 44.8016 84.9221 45.3413 84.6208 45.8956C84.3125 46.45 83.9749 47.0077 83.6081 47.569C83.243 48.1371 82.8805 48.5974 82.5206 48.9497C82.1624 49.3106 81.8541 49.491 81.5958 49.491C81.5389 49.491 81.4812 49.4764 81.4227 49.447C81.0507 49.3037 80.9327 48.7424 81.0688 47.7633C81.1979 46.8566 81.5312 45.5649 82.0685 43.8881C82.0616 43.8881 82.0547 43.8915 82.0478 43.8984C82.0478 43.8984 82.0444 43.8984 82.0375 43.8984C81.836 44.0349 81.6707 44.1393 81.5415 44.2119C81.4055 44.2827 81.2298 44.3656 81.0145 44.4605C80.7924 44.5469 80.5805 44.5857 80.3791 44.5771C80.1862 44.5702 80.0036 44.5054 79.8314 44.3828C79.487 44.1462 79.3113 43.8086 79.3044 43.37C79.2889 42.9383 79.4499 42.4634 79.7875 41.9453C79.9959 41.6206 80.2473 41.3357 80.5418 41.0905C80.8363 40.847 81.0834 40.7934 81.2832 40.9299C81.4124 41.0007 81.4881 41.119 81.5105 41.2847C81.5312 41.4436 81.452 41.7571 81.2729 42.2251C81.0938 42.693 80.7924 43.3009 80.3687 44.0487C80.6494 44.0849 81.1084 43.8907 81.7456 43.4658C81.8679 43.3864 81.9583 43.3286 82.0168 43.2923C82.0737 43.2647 82.1417 43.2327 82.2209 43.1964C82.2915 43.1602 82.3561 43.1455 82.4147 43.1524C82.4646 43.1593 82.518 43.1809 82.5748 43.2172C82.7109 43.326 82.7324 43.5168 82.6394 43.7896C81.7353 46.5976 81.3805 48.2995 81.5751 48.8953C81.5889 48.9315 81.6027 48.9574 81.6164 48.973C81.6888 48.9868 81.7964 48.9289 81.9393 48.7994C82.0909 48.6699 82.2777 48.4722 82.4999 48.2062C82.7221 47.9316 82.9623 47.6035 83.2206 47.2219C83.4721 46.842 83.7554 46.3783 84.0705 45.8308C84.3805 45.2765 84.6784 44.6859 84.9643 44.059C85.0005 43.9882 85.0547 43.9416 85.1271 43.9192ZM79.8624 43.0022C79.7849 43.3182 79.803 43.5738 79.9166 43.7689C80.578 42.6171 80.9336 41.8356 80.9835 41.4246C80.8682 41.4903 80.7424 41.5947 80.6064 41.7381C80.4634 41.8831 80.3196 42.0739 80.175 42.3105C80.0252 42.5419 79.921 42.7725 79.8624 43.0022Z" fill="white"/>
<path fill-rule="evenodd" clip-rule="evenodd" d="M98.8381 35.1092C99.2686 35.5133 99.6199 36.0789 99.892 36.8059C100.173 37.5398 100.363 38.3817 100.463 39.3315C100.571 40.2882 100.543 41.3753 100.378 42.5928C100.212 43.8085 99.9144 45.0493 99.4839 46.3151C99.0533 47.5896 98.5582 48.7199 97.9985 49.7059C97.4388 50.6851 96.8688 51.4622 96.2884 52.0373C95.7132 52.621 95.1423 53.057 94.5757 53.3454C94.016 53.6321 93.4744 53.7754 92.9508 53.7754C92.6718 53.7754 92.4101 53.74 92.1655 53.6692C91.5628 53.481 91.053 53.0915 90.6362 52.5009C90.2195 51.9121 89.925 51.16 89.7528 50.2447C89.3739 48.2156 89.615 45.6503 90.4761 42.5487C90.6259 41.9944 90.8016 41.4513 91.0031 40.9194C91.2028 40.3789 91.4284 39.8496 91.6799 39.3315C91.9382 38.8065 92.2112 38.3351 92.4988 37.9172C92.7933 37.4992 93.1127 37.1357 93.4571 36.8266C93.8016 36.5106 94.1563 36.2947 94.5214 36.179C94.6799 36.122 94.8383 36.0858 94.9968 36.0702C95.4979 35.3363 96.043 34.851 96.632 34.6144C97.4207 34.2967 98.1561 34.4616 98.8381 35.1092ZM99.0008 46.1545C99.4021 44.9526 99.6819 43.7688 99.8403 42.6031C99.9971 41.4288 100.032 40.3884 99.9463 39.4817C99.8602 38.5751 99.6914 37.7764 99.44 37.0856C99.1902 36.388 98.8716 35.8552 98.4842 35.4874C97.9589 34.9987 97.4026 34.8726 96.8154 35.1092C96.4055 35.2681 96.0068 35.6031 95.6193 36.1143C95.9362 36.1868 96.241 36.3379 96.5338 36.5676C96.5923 36.6177 96.6251 36.679 96.632 36.7515C96.6388 36.824 96.6208 36.8853 96.5777 36.9354C96.5278 36.9924 96.4701 37.0243 96.4046 37.0312C96.3409 37.0382 96.2763 37.02 96.2109 36.9769C95.9026 36.7403 95.5944 36.6151 95.2861 36.6012C94.5834 37.7168 93.9876 39.3609 93.4985 41.5333C93.0042 43.7144 92.6856 46.4386 92.5427 49.7059C92.5427 49.7785 92.5168 49.8398 92.4652 49.8898C92.4083 49.9399 92.3438 49.9615 92.2714 49.9546C92.2008 49.9546 92.1406 49.9261 92.0906 49.8691C92.0389 49.8173 92.0174 49.7595 92.026 49.6956C92.1121 47.7303 92.2697 45.9205 92.4988 44.2662C92.7347 42.6031 93.0292 41.1379 93.3822 39.8703C93.7336 38.6045 94.146 37.5467 94.6196 36.6971C93.9376 36.9561 93.2668 37.6253 92.6073 38.7046C91.9528 39.7926 91.4069 41.1171 90.9695 42.6783C90.6319 43.9165 90.3917 45.0787 90.2487 46.1649C90.1127 47.2511 90.0696 48.1871 90.1196 48.9729C90.1764 49.7638 90.3021 50.458 90.4967 51.0555C90.6982 51.653 90.9531 52.121 91.2614 52.4595C91.5696 52.8049 91.921 53.0423 92.3153 53.1718C92.8027 53.3221 93.334 53.2893 93.9092 53.0734C94.4896 52.8576 95.0777 52.4724 95.6736 51.9181C96.2694 51.3655 96.8576 50.5918 97.4379 49.5971C98.0269 48.6042 98.5479 47.4566 99.0008 46.1545Z" fill="white"/>
<path d="M109.472 43.8777C109.543 43.8777 109.604 43.9028 109.656 43.9529C109.705 44.0029 109.73 44.0642 109.73 44.1368C109.737 44.2076 109.712 44.268 109.656 44.3181C109.232 44.7585 108.801 45.0607 108.364 45.2247C107.925 45.3991 107.523 45.432 107.158 45.3232C106.734 45.2005 106.404 44.913 106.168 44.4606C106.03 44.9631 105.875 45.4449 105.703 45.906C105.447 46.576 105.221 47.0259 105.026 47.2556C104.84 47.4784 104.661 47.5932 104.489 47.6001C104.165 47.6156 103.939 47.31 103.81 46.6831C103.789 46.5329 103.767 46.3533 103.745 46.1443C103.192 46.9853 102.783 47.5319 102.518 47.784C102.31 47.9792 102.109 48.0767 101.916 48.0767C101.808 48.0767 101.71 48.0474 101.624 47.9886C101.28 47.7659 101.14 47.1865 101.206 46.2505C101.278 45.3163 101.529 44.2404 101.96 43.0229C101.988 42.959 102.034 42.9089 102.1 42.8727C102.156 42.8433 102.221 42.8399 102.293 42.8623C102.357 42.883 102.407 42.9297 102.443 43.0022C102.472 43.0661 102.472 43.1308 102.443 43.1965C102.149 44.0306 101.944 44.7895 101.828 45.4734C101.715 46.1642 101.676 46.6684 101.712 46.9862C101.74 47.3022 101.804 47.4896 101.906 47.5483C101.94 47.5759 102.026 47.5284 102.164 47.4058C102.443 47.1399 102.97 46.3956 103.745 45.1729C103.811 45.0641 103.904 45.0279 104.024 45.0641C104.153 45.1004 104.218 45.1867 104.218 45.3232C104.218 45.7981 104.254 46.2194 104.326 46.5873C104.369 46.8239 104.424 46.9853 104.489 47.0717C104.668 46.956 104.915 46.488 105.23 45.6677C105.546 44.8474 105.751 44.1031 105.845 43.4348C105.852 43.3761 105.881 43.3251 105.93 43.2819C105.98 43.2388 106.038 43.2172 106.104 43.2172C106.247 43.2103 106.333 43.2785 106.362 43.4218C106.512 44.2145 106.827 44.6825 107.307 44.8258C107.573 44.9053 107.882 44.8698 108.235 44.7196C108.586 44.5607 108.937 44.3051 109.289 43.9529C109.339 43.9028 109.4 43.8777 109.472 43.8777Z" fill="white"/>
<path d="M114.315 43.9529C114.386 43.9373 114.454 43.9477 114.519 43.984C114.576 44.0202 114.616 44.0712 114.638 44.1368C114.652 44.2076 114.641 44.2724 114.604 44.3311C114.303 44.8768 114.038 45.3085 113.809 45.6263C113.587 45.9423 113.357 46.1901 113.119 46.3697C112.883 46.5493 112.654 46.6253 112.432 46.5977C111.979 46.5476 111.623 46.0614 111.365 45.1393C111.172 44.5141 111.007 44.2016 110.869 44.2016C110.848 44.1929 110.813 44.2033 110.763 44.2326C110.713 44.262 110.634 44.3449 110.525 44.4813C110.419 44.6108 110.296 44.787 110.159 45.0097C110.029 45.2394 109.862 45.5745 109.655 46.0148C109.44 46.4604 109.21 46.9853 108.965 47.5898C108.922 47.6986 108.843 47.753 108.728 47.753C108.707 47.753 108.689 47.7495 108.673 47.7426C108.517 47.7063 108.449 47.6122 108.469 47.4602C108.555 46.7194 108.893 45.3379 109.482 43.3157C109.546 43.1067 109.589 42.9478 109.611 42.839C109.64 42.7682 109.687 42.7181 109.75 42.6888C109.816 42.6525 109.88 42.6456 109.944 42.6681C110.017 42.6819 110.071 42.7216 110.107 42.7872C110.141 42.8511 110.145 42.9193 110.117 42.9918C110.095 43.0557 110.048 43.2138 109.978 43.4659C109.783 44.1636 109.633 44.7067 109.526 45.0952C109.812 44.5495 110.062 44.1722 110.277 43.9632C110.493 43.7612 110.701 43.6636 110.903 43.6705C111.139 43.6792 111.325 43.8018 111.463 44.0384C111.606 44.268 111.739 44.5884 111.861 44.9994C112.061 45.6971 112.273 46.0606 112.496 46.0899C112.603 46.1037 112.736 46.0424 112.894 45.906C113.051 45.7627 113.22 45.5572 113.401 45.2895C113.587 45.0236 113.726 44.8155 113.819 44.6652C113.912 44.5064 114.023 44.3121 114.152 44.0824C114.189 44.0168 114.243 43.9736 114.315 43.9529Z" fill="white"/>
<path fill-rule="evenodd" clip-rule="evenodd" d="M131.085 43.7999C131.148 43.8154 131.202 43.8517 131.245 43.9087C131.295 43.9656 131.313 44.027 131.299 44.0926C131.285 44.1651 131.246 44.223 131.18 44.2661C129.782 45.2729 128.505 46.2227 127.349 47.1155C127.471 47.4903 127.485 47.897 127.39 48.3356C127.248 49.0695 126.986 49.7854 126.605 50.483C126.218 51.1807 125.78 51.7929 125.293 52.3196C124.797 52.8377 124.277 53.3013 123.733 53.7106C123.187 54.1216 122.67 54.4351 122.183 54.6509C121.687 54.8668 121.253 54.9894 120.881 55.0188C120.829 55.0257 120.782 55.0291 120.739 55.0291C120.301 55.0291 120.026 54.8668 119.912 54.5421C119.704 53.9671 120.187 53.0319 121.364 51.7368C122.533 50.426 124.316 48.8312 126.714 46.9523C126.448 46.4567 125.917 45.9965 125.12 45.5717C124.324 45.1538 123.072 44.596 121.364 43.8983C120.89 43.7118 120.528 43.5641 120.276 43.4553C119.623 43.1825 119.171 42.8155 118.92 42.3544C118.669 41.8934 118.637 41.3641 118.824 40.7665C119.06 40.0032 119.63 39.1761 120.535 38.285C121.432 37.3991 122.415 36.6211 123.485 35.951C124.554 35.2827 125.634 34.7474 126.724 34.345C127.807 33.9478 128.647 33.8174 129.243 33.9539C129.379 33.9832 129.504 34.0264 129.62 34.0834C129.735 34.1421 129.85 34.2293 129.963 34.345C130.079 34.4659 130.161 34.6274 130.211 34.8294C130.261 35.0315 130.268 35.2724 130.232 35.5521C130.225 35.5953 130.208 35.635 130.18 35.6713C130.151 35.7075 130.115 35.736 130.072 35.7568C130.029 35.7792 129.982 35.7835 129.932 35.7697C129.86 35.7611 129.802 35.7283 129.759 35.6713C129.716 35.6143 129.698 35.5495 129.705 35.477C129.764 35.1385 129.735 34.8976 129.62 34.7543C129.504 34.611 129.343 34.5177 129.134 34.4745C128.805 34.3882 128.357 34.4132 127.791 34.5497C127.216 34.6861 126.58 34.9158 125.884 35.2387C125.182 35.5564 124.471 35.9528 123.753 36.4277C122.591 37.1547 121.612 37.9214 120.816 38.7279C120.026 39.5327 119.53 40.2631 119.331 40.9194C119.029 41.8467 119.413 42.534 120.48 42.9813C120.725 43.0815 121.084 43.2248 121.557 43.4113C122.153 43.6565 122.599 43.8404 122.893 43.9631C123.179 44.0857 123.555 44.2471 124.022 44.4475C124.489 44.6495 124.851 44.8265 125.109 44.9785C125.361 45.1218 125.634 45.2867 125.928 45.4732C126.23 45.6615 126.473 45.8488 126.659 46.0354C126.854 46.2219 127.012 46.4196 127.132 46.6285C128.274 45.7444 129.523 44.8162 130.878 43.8439C130.943 43.8007 131.012 43.786 131.085 43.7999ZM126.897 48.2268C126.947 47.954 126.95 47.7018 126.907 47.4704C124.984 48.9832 123.459 50.3112 122.332 51.4544C121.673 52.1383 121.167 52.7427 120.814 53.2677C120.462 53.8013 120.323 54.1648 120.395 54.3582C120.431 54.467 120.582 54.5136 120.847 54.4981C121.148 54.4705 121.525 54.3591 121.976 54.1639C122.422 53.9636 122.9 53.6726 123.41 53.291C123.918 52.9093 124.405 52.4776 124.872 51.9958C125.332 51.5123 125.748 50.9363 126.122 50.268C126.487 49.6049 126.746 48.9245 126.897 48.2268Z" fill="white"/>
<path d="M142.148 38.9974C142.198 39.0544 142.216 39.1191 142.202 39.1916C142.195 39.2625 142.159 39.3194 142.094 39.3626C141.985 39.4351 141.884 39.4317 141.791 39.3523C141.354 39.202 138.312 39.1882 132.665 39.3108C132.084 41.7855 131.488 44.4622 130.877 47.341C130.161 50.8241 129.723 53.2176 129.565 54.5215C129.587 54.5215 129.609 54.5284 129.629 54.5422C129.702 54.556 129.748 54.5992 129.769 54.6717C129.798 54.7373 129.798 54.8021 129.769 54.866C129.726 55.011 129.69 55.1155 129.663 55.1794C129.627 55.2519 129.576 55.3202 129.511 55.3841C129.454 55.4566 129.389 55.4929 129.317 55.4929C129.287 55.4929 129.256 55.4859 129.221 55.4721C129.099 55.4359 129.027 55.3417 129.004 55.1898C128.984 55.0395 128.995 54.8306 129.038 54.5629C129.074 54.183 129.157 53.6364 129.286 52.9232C129.515 51.5693 129.852 49.8061 130.296 47.6337C130.905 44.7048 131.516 41.9374 132.127 39.3315C131.516 39.3384 130.755 39.3566 129.844 39.3859C128.402 39.4222 127.552 39.4403 127.294 39.4403C127.222 39.4403 127.161 39.4144 127.111 39.3626C127.061 39.3125 127.036 39.2521 127.036 39.1813C127.036 39.1295 127.05 39.0863 127.077 39.0518C127.099 39.0086 127.129 38.9758 127.165 38.9533C127.208 38.9326 127.251 38.9222 127.294 38.9222C127.546 38.9222 128.389 38.9007 129.823 38.8575C130.72 38.835 131.535 38.8169 132.267 38.8031C132.553 37.6081 132.808 36.5926 133.031 35.7568C133.052 35.686 133.095 35.6325 133.161 35.5962C133.217 35.56 133.282 35.5487 133.354 35.5625C133.418 35.585 133.468 35.6282 133.504 35.6921C133.54 35.7577 133.551 35.8268 133.535 35.8993C133.32 36.6971 133.073 37.6573 132.794 38.7798C135.499 38.709 137.541 38.6839 138.919 38.7047C140.296 38.7202 141.164 38.7496 141.523 38.7927C141.881 38.8359 142.089 38.9041 142.148 38.9974Z" fill="white"/>
<path fill-rule="evenodd" clip-rule="evenodd" d="M137.239 43.9943C137.31 43.9874 137.374 44.0055 137.433 44.0487C137.497 44.0919 137.532 44.1497 137.539 44.2223C137.547 44.2948 137.53 44.3595 137.487 44.4165C137.113 44.8983 136.672 45.2722 136.162 45.5382C135.645 45.8127 135.161 45.8991 134.71 45.7972C134.588 46.108 134.411 46.3498 134.181 46.5225C133.958 46.7021 133.726 46.7919 133.483 46.7919H133.46C133.224 46.785 133.012 46.7021 132.824 46.5432C132.638 46.3843 132.509 46.165 132.437 45.8853C132.323 45.438 132.345 45.0132 132.501 44.6108C132.66 44.2084 132.886 43.9131 133.181 43.7249C133.245 43.6817 133.316 43.6714 133.395 43.6938C133.481 43.4987 133.597 43.3476 133.741 43.2405C133.891 43.1317 134.049 43.0885 134.214 43.111C134.3 43.1317 134.383 43.1706 134.462 43.2276C134.541 43.2863 134.616 43.3804 134.687 43.5099C134.766 43.6325 134.824 43.8268 134.86 44.0927C134.896 44.3518 134.903 44.6643 134.881 45.0304C134.874 45.1168 134.863 45.2075 134.85 45.3024C135.187 45.3732 135.567 45.2869 135.989 45.0434C136.406 44.7982 136.765 44.4813 137.066 44.0927C137.109 44.0358 137.167 44.0029 137.239 43.9943ZM133.483 46.2635C133.605 46.2635 133.738 46.2056 133.881 46.0899C134.017 45.9673 134.131 45.8093 134.224 45.6159C133.635 45.2843 133.327 44.8379 133.3 44.2766C133.121 44.4493 132.998 44.6833 132.933 44.9786C132.86 45.2653 132.86 45.5166 132.933 45.7324C133.033 46.0865 133.216 46.2635 133.483 46.2635ZM134.354 44.9994C134.376 44.7835 134.379 44.5961 134.364 44.4373C134.35 44.2801 134.336 44.1506 134.323 44.0487C134.3 43.9485 134.274 43.8656 134.245 43.8C134.224 43.743 134.199 43.6999 134.17 43.6705C134.15 43.6429 134.136 43.6291 134.129 43.6291H134.116C134.082 43.6291 134.035 43.6576 133.976 43.7145C133.927 43.7715 133.887 43.851 133.858 43.9529C133.801 44.1463 133.809 44.3405 133.881 44.5357C133.96 44.736 134.118 44.9191 134.354 45.0849C134.354 45.0572 134.354 45.0287 134.354 44.9994Z" fill="white"/>
<path fill-rule="evenodd" clip-rule="evenodd" d="M142.524 43.9192C142.588 43.8984 142.652 43.9019 142.718 43.9295C142.782 43.9658 142.828 44.0167 142.857 44.0824C142.887 44.1532 142.883 44.2179 142.847 44.2766C142.602 44.8016 142.326 45.3413 142.018 45.8956C141.709 46.45 141.372 47.0077 141.005 47.569C140.64 48.1371 140.277 48.5974 139.918 48.9497C139.559 49.3106 139.255 49.491 139.003 49.491C138.939 49.491 138.878 49.4764 138.82 49.447C138.455 49.3037 138.34 48.7424 138.476 47.7633C138.598 46.8566 138.932 45.5649 139.478 43.8881C139.463 43.8881 139.455 43.8915 139.455 43.8984C139.448 43.8984 139.441 43.8984 139.434 43.8984C139.233 44.0349 139.068 44.1393 138.938 44.2119C138.809 44.2827 138.634 44.3656 138.412 44.4605C138.189 44.5469 137.978 44.5857 137.776 44.5771C137.583 44.5702 137.401 44.5054 137.228 44.3828C136.884 44.1462 136.707 43.8086 136.699 43.37C136.692 42.9383 136.854 42.4634 137.184 41.9453C137.393 41.6206 137.644 41.3357 137.939 41.0905C138.232 40.847 138.482 40.7934 138.691 40.9299C138.813 41.0007 138.885 41.119 138.907 41.2847C138.935 41.4436 138.856 41.7571 138.67 42.2251C138.491 42.693 138.189 43.3009 137.766 44.0487C138.046 44.0849 138.505 43.8907 139.143 43.4658C139.265 43.3864 139.354 43.3286 139.411 43.2923C139.47 43.2647 139.539 43.2327 139.618 43.1964C139.695 43.1602 139.76 43.1455 139.812 43.1524C139.868 43.1593 139.922 43.1809 139.972 43.2172C140.108 43.326 140.129 43.5168 140.036 43.7896C139.139 46.5976 138.784 48.2995 138.972 48.8953C138.993 48.9315 139.007 48.9574 139.013 48.973C139.086 48.9868 139.197 48.9289 139.347 48.7994C139.491 48.6699 139.675 48.4722 139.897 48.2062C140.119 47.9316 140.359 47.6035 140.618 47.2219C140.876 46.842 141.159 46.3783 141.467 45.8308C141.776 45.2765 142.077 44.6859 142.372 44.059C142.408 43.9882 142.459 43.9416 142.524 43.9192ZM137.27 43.0022C137.184 43.3182 137.202 43.5738 137.324 43.7689C137.977 42.6171 138.329 41.8356 138.381 41.4246C138.272 41.4903 138.146 41.5947 138.003 41.7381C137.867 41.8831 137.724 42.0739 137.572 42.3105C137.422 42.5419 137.321 42.7725 137.27 43.0022Z" fill="white"/>
<path fill-rule="evenodd" clip-rule="evenodd" d="M148.635 43.909C148.707 43.9228 148.761 43.9591 148.797 44.0178C148.84 44.0748 148.851 44.1396 148.828 44.2121C148.815 44.2829 148.779 44.3365 148.722 44.3727C147.13 45.4177 145.824 46.4549 144.804 47.4843C144.274 50.6796 143.693 53.2704 143.061 55.2566C142.306 57.6039 141.578 58.8786 140.875 59.0807C140.819 59.0945 140.751 59.1014 140.671 59.1014C140.47 59.1014 140.291 59.0116 140.134 58.8319C139.883 58.5072 139.746 57.9675 139.723 57.2127C139.703 56.4631 139.822 55.577 140.08 54.5545C140.331 53.5338 140.701 52.5475 141.188 51.5959C142.049 49.955 143.097 48.4973 144.331 47.2226C144.467 46.3746 144.604 45.4859 144.74 44.5567C144.459 44.9816 144.197 45.3383 143.954 45.6267C143.551 46.1155 143.171 46.2519 142.813 46.036C142.518 45.8495 142.361 45.4712 142.34 44.9013C142.325 44.3261 142.457 43.7 142.738 43.0229C142.758 42.959 142.805 42.9124 142.877 42.883C142.943 42.8537 143.007 42.8537 143.071 42.883C143.136 42.9124 143.183 42.959 143.21 43.0229C143.247 43.0817 143.25 43.1464 143.221 43.2173C142.978 43.8805 142.857 44.4202 142.857 44.8365C142.863 45.2545 142.938 45.5032 143.081 45.5826C143.183 45.6483 143.337 45.555 143.544 45.3028C143.997 44.7553 144.46 44.0679 144.933 43.2406C145.006 43.111 145.11 43.0713 145.246 43.1214C145.382 43.1715 145.443 43.2648 145.429 43.4012C145.271 44.5308 145.112 45.6034 144.954 46.619C145.88 45.7485 147.043 44.8564 148.441 43.9427C148.491 43.9064 148.555 43.8952 148.635 43.909ZM142.554 55.1167C143.136 53.3032 143.675 50.9888 144.169 48.1734C143.192 49.2616 142.353 50.4853 141.65 51.8446C141.263 52.5873 140.955 53.3429 140.726 54.1115C140.495 54.8905 140.351 55.5675 140.294 56.1427C140.244 56.7179 140.241 57.2144 140.284 57.6324C140.327 58.0504 140.413 58.3345 140.542 58.4848C140.608 58.5642 140.669 58.5936 140.726 58.5729C140.776 58.5659 140.826 58.5444 140.875 58.5081C140.934 58.4718 141.024 58.3777 141.144 58.2257C141.273 58.0754 141.402 57.8846 141.532 57.6531C141.654 57.4234 141.812 57.0892 142.007 56.6505C142.193 56.2031 142.375 55.6919 142.554 55.1167Z" fill="white"/>
</g>
<defs>
<clipPath id="clip0_1_2">
<rect width="150" height="80" fill="white"/>
</clipPath>
</defs>
</svg>
